<svg width="120" height="36" viewBox="0 0 120 36" fill="none" xmlns="http://www.w3.org/2000/svg">
<g clip-path="url(#clip0_10876_145935)">
<path d="M117.095 0.489258H2.44942C1.36739 0.489258 0.490234 1.36538 0.490234 2.44614V32.7778C0.490234 33.8586 1.36739 34.7347 2.44942 34.7347H117.095C118.177 34.7347 119.054 33.8586 119.054 32.7778V2.44614C119.054 1.36538 118.177 0.489258 117.095 0.489258Z" stroke="black" stroke-width="1.19403"/>
<path d="M28.3113 16.7886C28.2886 14.0797 30.5327 12.7593 30.6372 12.7003C29.3652 10.849 27.3936 10.5949 26.6986 10.5768C25.0404 10.4044 23.4368 11.566 22.5919 11.566C21.7332 11.566 20.434 10.5949 19.0303 10.6222C17.2267 10.6494 15.5413 11.693 14.6192 13.3084C12.7112 16.6071 14.1331 21.4532 15.9638 24.1212C16.8769 25.428 17.9445 26.8846 19.3437 26.8346C20.7111 26.7802 21.2244 25.9634 22.8735 25.9634C24.5089 25.9634 24.9904 26.8346 26.4169 26.8029C27.8842 26.7802 28.811 25.4915 29.6923 24.1757C30.7508 22.6783 31.1733 21.2036 31.1914 21.131C31.1551 21.1083 28.3385 20.033 28.3113 16.7886ZM25.6174 8.82076C26.3533 7.89966 26.8575 6.65185 26.7167 5.38135C25.6537 5.4267 24.3181 6.1164 23.5549 7.01485C22.878 7.80891 22.2693 9.10661 22.4283 10.3272C23.6185 10.4134 24.8496 9.72372 25.6174 8.82076Z" fill="black"/>
<path d="M48.1287 26.6394H46.2162L45.1668 23.3543H41.528L40.5286 26.6394H38.666L42.273 15.4499H44.499L48.1287 26.6394ZM44.8534 21.9749L43.9039 19.0527C43.804 18.7532 43.6131 18.0499 43.3406 16.9428H43.3088C43.1998 17.4192 43.018 18.1225 42.7773 19.0527L41.846 21.9749H44.8534ZM57.3873 22.5058C57.3873 23.8761 57.0146 24.9606 56.2696 25.7592C55.6015 26.467 54.7703 26.8209 53.7799 26.8209C52.7078 26.8209 51.9403 26.4398 51.4725 25.6775V29.911H49.6779V21.2216C49.6779 20.3595 49.6554 19.4747 49.6098 18.5717H51.1904L51.2908 19.8513H51.3221C51.9221 18.8894 52.8307 18.4038 54.0479 18.4038C55.002 18.4038 55.7969 18.7805 56.4332 19.5337C57.0689 20.2869 57.3873 21.2806 57.3873 22.5058ZM55.5608 22.5738C55.5608 21.7889 55.3835 21.14 55.0294 20.6318C54.643 20.1009 54.1208 19.8377 53.4665 19.8377C53.0261 19.8377 52.6216 19.9874 52.2626 20.2778C51.904 20.5728 51.6675 20.9585 51.5587 21.4304C51.5088 21.6074 51.4813 21.7934 51.4769 21.9749V23.3225C51.4769 23.9079 51.6586 24.4024 52.0177 24.8108C52.3762 25.2147 52.8444 25.4188 53.4209 25.4188C54.0978 25.4188 54.6248 25.1557 55.002 24.6384C55.3698 24.1121 55.5608 23.4269 55.5608 22.5738ZM66.6817 22.5058C66.6817 23.8761 66.3094 24.9606 65.5639 25.7592C64.8963 26.467 64.0652 26.8209 63.0748 26.8209C62.0026 26.8209 61.2346 26.4398 60.7669 25.6775V29.911H58.9723V21.2216C58.9723 20.3595 58.9497 19.4747 58.9042 18.5717H60.4852L60.5852 19.8513H60.617C61.2165 18.8894 62.1251 18.4038 63.3427 18.4038C64.2968 18.4038 65.0918 18.7805 65.7275 19.5337C66.3594 20.2869 66.6817 21.2806 66.6817 22.5058ZM64.8508 22.5738C64.8508 21.7889 64.674 21.14 64.3194 20.6318C63.9334 20.1009 63.4108 19.8377 62.7569 19.8377C62.3161 19.8377 61.9115 19.9874 61.5481 20.2778C61.1896 20.5728 60.953 20.9585 60.8443 21.4304C60.7894 21.6527 60.7581 21.8342 60.7581 21.9749V23.3225C60.7581 23.9079 60.9398 24.4024 61.2983 24.8108C61.6573 25.2147 62.1251 25.4188 62.707 25.4188C63.3834 25.4188 63.9104 25.1557 64.2875 24.6384C64.6647 24.1121 64.8508 23.4269 64.8508 22.5738ZM77.0712 23.504C77.0712 24.4569 76.7396 25.2328 76.0764 25.8272C75.3496 26.4806 74.3274 26.8073 73.0235 26.8073C71.8196 26.8073 70.8523 26.5759 70.1205 26.1085L70.5339 24.6157C71.32 25.0831 72.1875 25.3145 73.1279 25.3145C73.8048 25.3145 74.3318 25.1602 74.7089 24.8562C75.0861 24.5522 75.2766 24.1438 75.2766 23.6356C75.2766 23.1819 75.1179 22.8007 74.8088 22.4876C74.4998 22.1791 73.9865 21.8887 73.2645 21.6255C71.3019 20.8949 70.3204 19.8241 70.3204 18.422C70.3204 17.5054 70.6657 16.7522 71.3607 16.1669C72.0513 15.5815 72.9692 15.2866 74.1138 15.2866C75.1316 15.2866 75.9809 15.4636 76.6578 15.8175L76.2082 17.2786C75.5719 16.9337 74.8588 16.7658 74.0546 16.7658C73.4232 16.7658 72.9236 16.9201 72.569 17.2286C72.2692 17.5054 72.1194 17.8412 72.1194 18.2405C72.1194 18.6806 72.2923 19.0482 72.6376 19.334C72.9373 19.5972 73.4776 19.8876 74.2637 20.1962C75.2266 20.5864 75.9354 21.0356 76.3899 21.5575C76.8439 22.0793 77.0712 22.7281 77.0712 23.504ZM83.0222 19.9194H81.0415V23.8353C81.0415 24.8335 81.3912 25.3281 82.0911 25.3281C82.4134 25.3281 82.6769 25.3009 82.8905 25.2464L82.9404 26.6077C82.5863 26.7393 82.123 26.8073 81.546 26.8073C80.8372 26.8073 80.2828 26.5895 79.8831 26.1585C79.4834 25.7274 79.2836 25.0014 79.2836 23.985V19.9194H78.1071V18.5763H79.2836V17.0971L81.0464 16.5662V18.5763H83.0266L83.0222 19.9194ZM91.9306 22.5421C91.9306 23.7808 91.5765 24.8018 90.8678 25.5958C90.1272 26.4171 89.1417 26.8255 87.9104 26.8255C86.7246 26.8255 85.7798 26.4307 85.0755 25.6503C84.3716 24.8653 84.0219 23.8716 84.0219 22.6782C84.0219 21.4259 84.3853 20.4049 85.1122 19.6063C85.839 18.8077 86.8157 18.4129 88.0466 18.4129C89.2323 18.4129 90.1865 18.8077 90.904 19.5927C91.5853 20.3504 91.9306 21.3351 91.9306 22.5421ZM90.0684 22.5829C90.0684 21.8433 89.9092 21.208 89.5865 20.6817C89.2098 20.0419 88.6735 19.7197 87.9741 19.7197C87.256 19.7197 86.7021 20.0419 86.3293 20.6817C86.007 21.2126 85.8479 21.8569 85.8479 22.6192C85.8479 23.3588 86.007 23.9941 86.3293 24.525C86.7158 25.1647 87.2609 25.4869 87.9604 25.4869C88.6466 25.4869 89.1824 25.1602 89.5732 24.5114C89.9048 23.9623 90.0684 23.3225 90.0684 22.5829ZM97.7685 20.1508C97.5819 20.119 97.3914 20.1009 97.2003 20.1009C96.569 20.1009 96.0831 20.3368 95.7378 20.8133C95.4381 21.2353 95.2882 21.7662 95.2882 22.406V26.6394H93.4936V21.1127C93.4936 20.2642 93.4799 19.4202 93.4436 18.5717H95.0065L95.0697 20.1145H95.1197C95.3107 19.5836 95.6061 19.1571 96.0195 18.8349C96.3917 18.5536 96.8506 18.4038 97.3184 18.4038C97.4869 18.4038 97.6319 18.4175 97.7685 18.4356V20.1508ZM105.796 22.2245C105.8 22.4967 105.777 22.769 105.732 23.0367H100.344C100.362 23.8353 100.626 24.4433 101.126 24.8653C101.58 25.2419 102.166 25.4279 102.888 25.4279C103.688 25.4279 104.415 25.3009 105.069 25.0468L105.351 26.29C104.587 26.6213 103.683 26.7892 102.643 26.7892C101.389 26.7892 100.408 26.4216 99.69 25.6866C98.9768 24.9515 98.6178 23.9623 98.6178 22.7236C98.6178 21.5075 98.9494 20.4956 99.6175 19.688C100.313 18.8258 101.257 18.3948 102.443 18.3948C103.606 18.3948 104.487 18.8258 105.087 19.688C105.555 20.3731 105.796 21.2171 105.796 22.2245ZM104.083 21.7616C104.097 21.2307 103.979 20.7724 103.733 20.3822C103.424 19.8831 102.943 19.6335 102.302 19.6335C101.716 19.6335 101.239 19.8785 100.871 20.364C100.571 20.7497 100.394 21.2171 100.339 21.7571L104.083 21.7616Z" fill="black"/>
<path d="M41.0109 11.4979C40.5112 11.4979 40.0796 11.4752 39.7207 11.4343V6.0211C40.225 5.94395 40.7338 5.9031 41.2426 5.90765C43.3005 5.90765 44.2499 6.9195 44.2499 8.56661C44.2454 10.4678 43.1279 11.4979 41.0109 11.4979ZM41.3152 6.6019C41.0382 6.6019 40.8019 6.62005 40.6066 6.66085V10.7719C40.7111 10.79 40.9155 10.7945 41.2017 10.7945C42.5509 10.7945 43.3186 10.0277 43.3186 8.59386C43.3141 7.30975 42.6191 6.6019 41.3152 6.6019ZM47.2028 11.5387C46.0444 11.5387 45.2902 10.672 45.2902 9.49681C45.2902 8.27166 46.058 7.40051 47.2664 7.40051C48.4112 7.40051 49.1791 8.22631 49.1791 9.43327C49.1791 10.672 48.3885 11.5387 47.2028 11.5387ZM47.2346 8.04481C46.5986 8.04481 46.1897 8.63921 46.1897 9.47411C46.1897 10.2909 46.6077 10.8853 47.2255 10.8853C47.8479 10.8853 48.2613 10.25 48.2613 9.45597C48.2658 8.64831 47.8569 8.04481 47.2346 8.04481ZM55.7933 7.48216L54.5531 11.4479H53.7444L53.2311 9.72822C53.1038 9.30622 52.9951 8.87971 52.9133 8.44866H52.8951C52.8315 8.87971 52.7085 9.31531 52.5768 9.72822L52.0316 11.4479H51.2142L50.0465 7.48216H50.9551L51.4047 9.36522C51.5095 9.81442 51.6001 10.2364 51.6731 10.6403H51.6912C51.7549 10.3045 51.8636 9.89157 52.0184 9.37431L52.5817 7.48216H53.2992L53.84 9.33346C53.9717 9.78267 54.076 10.2228 54.1578 10.6403H54.1804C54.2396 10.2319 54.3258 9.80082 54.4488 9.33346L54.9302 7.48216H55.7933ZM60.368 11.4479H59.4868V9.17011C59.4868 8.46681 59.2184 8.11741 58.687 8.11741C58.1649 8.11741 57.8058 8.56661 57.8058 9.08841V11.4479H56.9247V8.61651C56.9247 8.26716 56.9154 7.89056 56.8928 7.48216H57.6697L57.7103 8.09471H57.7329C57.9694 7.67276 58.4509 7.40051 58.9916 7.40051C59.8228 7.40051 60.3724 8.03576 60.3724 9.07481L60.368 11.4479ZM62.7983 11.4479H61.9172V5.6626H62.7983V11.4479ZM66.0192 11.5387C64.8609 11.5387 64.1066 10.672 64.1066 9.49681C64.1066 8.27166 64.8746 7.40051 66.0829 7.40051C67.2275 7.40051 67.9955 8.22631 67.9955 9.43327C67.9955 10.672 67.2006 11.5387 66.0192 11.5387ZM66.0511 8.04481C65.4148 8.04481 65.0063 8.63921 65.0063 9.47411C65.0063 10.2909 65.4241 10.8853 66.0417 10.8853C66.6643 10.8853 67.0777 10.25 67.0777 9.45597C67.0777 8.64831 66.6736 8.04481 66.0511 8.04481ZM71.4751 11.4479L71.4114 10.9896H71.3889C71.1209 11.3572 70.7257 11.5341 70.2261 11.5341C69.5124 11.5341 69.0084 11.035 69.0084 10.368C69.0084 9.38791 69.8577 8.88426 71.3296 8.88426V8.81166C71.3296 8.28981 71.0529 8.02666 70.5077 8.02666C70.1169 8.02666 69.7715 8.12651 69.4718 8.32161L69.2945 7.74081C69.6628 7.51391 70.1213 7.39596 70.6576 7.39596C71.693 7.39596 72.22 7.94046 72.22 9.03396V10.4951C72.22 10.8944 72.2382 11.2074 72.2793 11.4434L71.4751 11.4479ZM71.3526 9.47411C70.3711 9.47411 69.8808 9.71007 69.8808 10.2727C69.8808 10.6902 70.135 10.8944 70.4847 10.8944C70.9348 10.8944 71.3526 10.554 71.3526 10.0867V9.47411ZM76.495 11.4479L76.4543 10.8127H76.4313C76.1771 11.2937 75.75 11.5387 75.1549 11.5387C74.1964 11.5387 73.4876 10.6993 73.4876 9.51496C73.4876 8.27621 74.2238 7.40051 75.2274 7.40051C75.7593 7.40051 76.136 7.57746 76.3451 7.94046H76.3632V5.6626H77.2444V10.3771C77.2444 10.7582 77.2537 11.1212 77.2762 11.4434H76.495V11.4479ZM76.3676 9.11566C76.3676 8.56206 75.9998 8.08566 75.4365 8.08566C74.7822 8.08566 74.3825 8.66646 74.3825 9.47866C74.3825 10.2773 74.7959 10.8263 75.4184 10.8263C75.9724 10.8263 76.3676 10.3453 76.3676 9.77362V9.11566ZM82.8506 11.5387C81.6922 11.5387 80.9379 10.672 80.9379 9.49681C80.9379 8.27166 81.7054 7.40051 82.9142 7.40051C84.0589 7.40051 84.8264 8.22631 84.8264 9.43327C84.8264 10.672 84.0364 11.5387 82.8506 11.5387ZM82.8824 8.04481C82.2462 8.04481 81.8372 8.63921 81.8372 9.47411C81.8372 10.2909 82.2555 10.8853 82.8731 10.8853C83.4956 10.8853 83.909 10.25 83.909 9.45597C83.9134 8.64831 83.5044 8.04481 82.8824 8.04481ZM89.574 11.4479H88.6924V9.17011C88.6924 8.46681 88.4244 8.11741 87.893 8.11741C87.3704 8.11741 87.0119 8.56661 87.0119 9.08841V11.4479H86.1302V8.61651C86.1302 8.26716 86.1214 7.89056 86.0984 7.48216H86.8752L86.9164 8.09471H86.9389C87.1755 7.67276 87.6569 7.40051 88.1972 7.40051C89.0289 7.40051 89.5784 8.03576 89.5784 9.07481V11.4479H89.574ZM95.5069 8.14461H94.5346V10.0685C94.5346 10.5586 94.7026 10.8036 95.048 10.8036C95.2022 10.8036 95.334 10.7855 95.4388 10.7628L95.4613 11.4298C95.2889 11.4933 95.0617 11.5296 94.7756 11.5296C94.0801 11.5296 93.6623 11.1485 93.6623 10.1411V8.14011H93.0809V7.47761H93.6623V6.7516L94.5302 6.48845V7.47761H95.5025L95.5069 8.14461ZM100.182 11.4479H99.2999V9.18826C99.2999 8.48041 99.032 8.12196 98.5005 8.12196C98.0416 8.12196 97.6194 8.43051 97.6194 9.06121V11.4525H96.7377V5.6626H97.6194V8.04481H97.6375C97.9147 7.61376 98.3188 7.40051 98.8321 7.40051C99.6726 7.40051 100.186 8.05386 100.186 9.08841L100.182 11.4479ZM104.965 9.67832H102.317C102.335 10.427 102.83 10.8535 103.566 10.8535C103.956 10.8535 104.32 10.79 104.638 10.6675L104.774 11.28C104.397 11.4434 103.956 11.5251 103.443 11.5251C102.203 11.5251 101.467 10.7401 101.467 9.52857C101.467 8.31251 102.221 7.40051 103.343 7.40051C104.356 7.40051 104.992 8.14916 104.992 9.28356C105.001 9.41061 104.992 9.54672 104.965 9.67832ZM104.156 9.04761C104.156 8.43501 103.848 8.00396 103.284 8.00396C102.775 8.00396 102.376 8.44411 102.321 9.04761H104.156Z" fill="black"/>
</g>
<defs>
<clipPath id="clip0_10876_145935">
<rect width="120" height="35.2239" fill="white"/>
</clipPath>
</defs>
</svg>
