<?xml version="1.0" encoding="UTF-8"?>
<svg width="21px" height="21px" viewBox="0 0 21 21" version="1.1" xmlns="http://www.w3.org/2000/svg" xmlns:xlink="http://www.w3.org/1999/xlink">
    <!-- Generator: Sketch 43.1 (39012) - http://www.bohemiancoding.com/sketch -->
    <title>close_icon</title>
    <desc>Created with Sketch.</desc>
    <defs></defs>
    <g id="Page-1" stroke="none" stroke-width="1" fill="none" fill-rule="evenodd">
        <g id="Remita_Web_Menu" transform="translate(-1383.000000, -37.000000)" fill-rule="nonzero" fill="#A3A3A3">
            <g id="close_icon" transform="translate(1383.000000, 37.000000)">
                <path d="M9.49626563,10.5924 L0.201140625,19.7445231 C-0.05709375,19.9987846 -0.05709375,20.4107077 0.201140625,20.6649692 C0.33009375,20.7922615 0.49940625,20.8555846 0.668390625,20.8555846 C0.837703125,20.8555846 1.0066875,20.7922615 1.13564063,20.6649692 L10.5006563,11.4440308 L19.8656719,20.6649692 C19.9949531,20.7922615 20.1639375,20.8555846 20.3329219,20.8555846 C20.5019063,20.8555846 20.6712188,20.7922615 20.8001719,20.6649692 C21.0584063,20.4107077 21.0584063,19.9987846 20.8001719,19.7445231 L11.505375,10.5924 L20.8064063,1.43381538 C21.0646406,1.17955385 21.0646406,0.767630769 20.8064063,0.513369231 C20.5481719,0.259430769 20.1298125,0.259430769 19.8719063,0.513369231 L10.5009844,9.74076923 L1.12907813,0.513692308 C0.87084375,0.259753846 0.4528125,0.259753846 0.194578125,0.513692308 C-0.06365625,0.767953846 -0.06365625,1.17987692 0.194578125,1.43413846 L9.49626563,10.5924 Z" id="Shape"></path>
            </g>
        </g>
    </g>
</svg>