<svg width="32" height="32" viewBox="0 0 32 32" fill="none" xmlns="http://www.w3.org/2000/svg">
<rect width="32" height="32" rx="8" fill="#F16521"/>
<path d="M5.77141 9.20369C5.25621 8.72535 5 8.13325 5 7.42876C5 6.72426 5.25758 6.10611 5.77141 5.6264C6.28661 5.14806 6.94979 4.9082 7.76232 4.9082C8.57486 4.9082 9.21201 5.14806 9.72584 5.6264C10.241 6.10474 10.4972 6.70644 10.4972 7.42876C10.4972 8.15107 10.2397 8.72535 9.72584 9.20369C9.21064 9.68203 8.55704 9.92189 7.76232 9.92189C6.9676 9.92189 6.28661 9.68203 5.77141 9.20369ZM10.0643 11.9477V26.6132H5.4316V11.9477H10.0643Z" fill="#FEFFFC"/>
<path d="M25.4865 13.3962C26.4963 14.4927 27.0006 15.9976 27.0006 17.9137V26.3539H22.6009V18.5086C22.6009 17.5423 22.3501 16.7912 21.85 16.2567C21.3499 15.7221 20.6757 15.4535 19.8317 15.4535C18.9876 15.4535 18.3135 15.7207 17.8133 16.2567C17.3132 16.7912 17.0625 17.5423 17.0625 18.5086V26.3539H12.6367V11.9063H17.0625V13.8225C17.5105 13.1837 18.1148 12.6794 18.8739 12.3079C19.633 11.9365 20.4866 11.7515 21.4362 11.7515C23.127 11.7515 24.478 12.2997 25.4865 13.3948V13.3962Z" fill="#FEFFFC"/>
</svg>
