<svg width="32" height="32" viewBox="0 0 32 32" fill="none" xmlns="http://www.w3.org/2000/svg">
<rect width="32" height="32" rx="8" fill="#F16521"/>
<g clip-path="url(#clip0_10876_145916)">
<path d="M16 6.16094C19.2063 6.16094 19.5859 6.175 20.8469 6.23125C22.0188 6.28281 22.6516 6.47969 23.0734 6.64375C23.6313 6.85938 24.0344 7.12188 24.4516 7.53906C24.8734 7.96094 25.1313 8.35938 25.3469 8.91719C25.5109 9.33906 25.7078 9.97656 25.7594 11.1437C25.8156 12.4094 25.8297 12.7891 25.8297 15.9906C25.8297 19.1969 25.8156 19.5766 25.7594 20.8375C25.7078 22.0094 25.5109 22.6422 25.3469 23.0641C25.1313 23.6219 24.8687 24.025 24.4516 24.4422C24.0297 24.8641 23.6313 25.1219 23.0734 25.3375C22.6516 25.5016 22.0141 25.6984 20.8469 25.75C19.5813 25.8062 19.2016 25.8203 16 25.8203C12.7938 25.8203 12.4141 25.8062 11.1531 25.75C9.98125 25.6984 9.34844 25.5016 8.92656 25.3375C8.36875 25.1219 7.96563 24.8594 7.54844 24.4422C7.12656 24.0203 6.86875 23.6219 6.65313 23.0641C6.48906 22.6422 6.29219 22.0047 6.24063 20.8375C6.18438 19.5719 6.17031 19.1922 6.17031 15.9906C6.17031 12.7844 6.18438 12.4047 6.24063 11.1437C6.29219 9.97187 6.48906 9.33906 6.65313 8.91719C6.86875 8.35938 7.13125 7.95625 7.54844 7.53906C7.97031 7.11719 8.36875 6.85938 8.92656 6.64375C9.34844 6.47969 9.98594 6.28281 11.1531 6.23125C12.4141 6.175 12.7938 6.16094 16 6.16094ZM16 4C12.7422 4 12.3344 4.01406 11.0547 4.07031C9.77969 4.12656 8.90313 4.33281 8.14375 4.62812C7.35156 4.9375 6.68125 5.34531 6.01563 6.01562C5.34531 6.68125 4.9375 7.35156 4.62813 8.13906C4.33281 8.90313 4.12656 9.775 4.07031 11.05C4.01406 12.3344 4 12.7422 4 16C4 19.2578 4.01406 19.6656 4.07031 20.9453C4.12656 22.2203 4.33281 23.0969 4.62813 23.8563C4.9375 24.6484 5.34531 25.3188 6.01563 25.9844C6.68125 26.65 7.35156 27.0625 8.13906 27.3672C8.90313 27.6625 9.775 27.8687 11.05 27.925C12.3297 27.9812 12.7375 27.9953 15.9953 27.9953C19.2531 27.9953 19.6609 27.9812 20.9406 27.925C22.2156 27.8687 23.0922 27.6625 23.8516 27.3672C24.6391 27.0625 25.3094 26.65 25.975 25.9844C26.6406 25.3188 27.0531 24.6484 27.3578 23.8609C27.6531 23.0969 27.8594 22.225 27.9156 20.95C27.9719 19.6703 27.9859 19.2625 27.9859 16.0047C27.9859 12.7469 27.9719 12.3391 27.9156 11.0594C27.8594 9.78438 27.6531 8.90781 27.3578 8.14844C27.0625 7.35156 26.6547 6.68125 25.9844 6.01562C25.3188 5.35 24.6484 4.9375 23.8609 4.63281C23.0969 4.3375 22.225 4.13125 20.95 4.075C19.6656 4.01406 19.2578 4 16 4Z" fill="white"/>
<path d="M16 9.83594C12.5969 9.83594 9.83594 12.5969 9.83594 16C9.83594 19.4031 12.5969 22.1641 16 22.1641C19.4031 22.1641 22.1641 19.4031 22.1641 16C22.1641 12.5969 19.4031 9.83594 16 9.83594ZM16 19.9984C13.7922 19.9984 12.0016 18.2078 12.0016 16C12.0016 13.7922 13.7922 12.0016 16 12.0016C18.2078 12.0016 19.9984 13.7922 19.9984 16C19.9984 18.2078 18.2078 19.9984 16 19.9984Z" fill="white"/>
<path d="M23.8469 9.59238C23.8469 10.3893 23.2 11.0314 22.4078 11.0314C21.6109 11.0314 20.9688 10.3846 20.9688 9.59238C20.9688 8.79551 21.6156 8.15332 22.4078 8.15332C23.2 8.15332 23.8469 8.8002 23.8469 9.59238Z" fill="white"/>
</g>
<defs>
<clipPath id="clip0_10876_145916">
<rect width="24" height="24" fill="white" transform="translate(4 4)"/>
</clipPath>
</defs>
</svg>
