<svg width="120" height="36" viewBox="0 0 120 36" fill="none" xmlns="http://www.w3.org/2000/svg">
<g clip-path="url(#clip0_10876_145921)">
<path d="M117.095 0.489258H2.44942C1.36739 0.489258 0.490234 1.36538 0.490234 2.44614V32.7778C0.490234 33.8586 1.36739 34.7347 2.44942 34.7347H117.095C118.177 34.7347 119.054 33.8586 119.054 32.7778V2.44614C119.054 1.36538 118.177 0.489258 117.095 0.489258Z" stroke="black" stroke-width="1.19403"/>
<path d="M42.9147 9.22472C42.9147 9.89877 42.746 10.4886 42.3243 10.9098C41.8181 11.4154 41.2277 11.6681 40.4685 11.6681C39.7093 11.6681 39.1188 11.4154 38.6127 10.9098C38.1066 10.4043 37.8535 9.81453 37.8535 9.05624C37.8535 8.29794 38.1066 7.70819 38.6127 7.20263C39.1188 6.69712 39.7093 6.44434 40.4685 6.44434C40.8059 6.44434 41.1433 6.52858 41.4807 6.69712C41.8181 6.8656 42.0712 7.03414 42.2399 7.28687L41.8181 7.70814C41.4807 7.28687 41.0589 7.11838 40.4685 7.11838C39.9623 7.11838 39.4562 7.28687 39.1188 7.70814C38.697 8.04516 38.5284 8.55072 38.5284 9.14048C38.5284 9.73028 38.697 10.2358 39.1188 10.5728C39.5406 10.9098 39.9623 11.1626 40.4685 11.1626C41.0589 11.1626 41.4807 10.9941 41.9025 10.5728C42.1555 10.32 42.3243 9.98301 42.3243 9.56175H40.4685V8.97199H42.9147C42.9147 8.97199 42.9147 9.05624 42.9147 9.22472Z" fill="black" stroke="black" stroke-width="0.119403" stroke-miterlimit="10"/>
<path d="M46.7942 7.11838H44.5166V8.71921H46.6255V9.30902H44.5166V10.9098H46.7942V11.4996H43.8418V6.44434H46.7942V7.11838Z" fill="black" stroke="black" stroke-width="0.119403" stroke-miterlimit="10"/>
<path d="M49.5778 11.4996H48.9028V7.03414H47.4688V6.44434H51.0114V7.03414H49.5778V11.4996Z" fill="black" stroke="black" stroke-width="0.119403" stroke-miterlimit="10"/>
<path d="M53.459 11.4996V6.44434H54.1334V11.4996H53.459Z" fill="black" stroke="black" stroke-width="0.119403" stroke-miterlimit="10"/>
<path d="M57.0011 11.4996H56.3267V7.03414H54.8926V6.44434H58.351V7.03414H56.9169V11.4996H57.0011Z" fill="black" stroke="black" stroke-width="0.119403" stroke-miterlimit="10"/>
<path d="M65.0158 10.9098C64.5098 11.4154 63.9191 11.6681 63.1599 11.6681C62.4008 11.6681 61.8106 11.4154 61.3041 10.9098C60.7981 10.4043 60.5449 9.81453 60.5449 9.05624C60.5449 8.29794 60.7981 7.70819 61.3041 7.20263C61.8106 6.69712 62.4008 6.44434 63.1599 6.44434C63.9191 6.44434 64.5098 6.69712 65.0158 7.20263C65.5217 7.70819 65.775 8.29794 65.775 9.05624C65.775 9.73028 65.5217 10.4043 65.0158 10.9098ZM61.8106 10.4886C62.148 10.8256 62.654 11.0783 63.1599 11.0783C63.6664 11.0783 64.1723 10.9098 64.5098 10.4886C64.8473 10.1516 65.1 9.64604 65.1 9.05624C65.1 8.46643 64.9315 7.96092 64.5098 7.6239C64.1723 7.28687 63.6664 7.03414 63.1599 7.03414C62.654 7.03414 62.148 7.20263 61.8106 7.6239C61.4731 7.96092 61.2199 8.46643 61.2199 9.05624C61.2199 9.56175 61.3888 10.0673 61.8106 10.4886Z" fill="black" stroke="black" stroke-width="0.119403" stroke-miterlimit="10"/>
<path d="M66.7031 11.4996V6.44434H67.4623L69.9083 10.4043V9.39326V6.44434H70.5833V11.4996H69.9083L67.2933 7.37116V8.38219V11.4996H66.7031Z" fill="black" stroke="black" stroke-width="0.119403" stroke-miterlimit="10"/>
<path d="M60.3751 18.914C58.3507 18.914 56.7481 20.4306 56.7481 22.537C56.7481 24.5591 58.3507 26.1599 60.3751 26.1599C62.3994 26.1599 64.0025 24.6434 64.0025 22.537C64.0025 20.4306 62.3994 18.914 60.3751 18.914ZM60.3751 24.6434C59.2784 24.6434 58.3507 23.7166 58.3507 22.4528C58.3507 21.1889 59.2784 20.2621 60.3751 20.2621C61.4717 20.2621 62.3994 21.1047 62.3994 22.4528C62.3994 23.8008 61.4717 24.6434 60.3751 24.6434ZM52.53 18.914C50.5057 18.914 48.903 20.4306 48.903 22.537C48.903 24.5591 50.5057 26.1599 52.53 26.1599C54.5548 26.1599 56.1574 24.6434 56.1574 22.537C56.1574 20.4306 54.5548 18.914 52.53 18.914ZM52.53 24.6434C51.4338 24.6434 50.5057 23.7166 50.5057 22.4528C50.5057 21.1889 51.4338 20.2621 52.53 20.2621C53.6267 20.2621 54.5548 21.1047 54.5548 22.4528C54.5548 23.8008 53.6267 24.6434 52.53 24.6434ZM43.167 20.0094V21.5259H46.7942C46.7098 22.3685 46.3724 23.0425 45.9506 23.4638C45.4445 23.9693 44.6009 24.5591 43.167 24.5591C40.8894 24.5591 39.2023 22.7898 39.2023 20.5149C39.2023 18.24 40.9738 16.4707 43.167 16.4707C44.3479 16.4707 45.2758 16.9762 45.9506 17.566L47.0472 16.4707C46.1193 15.6281 44.9384 14.9541 43.2513 14.9541C40.2146 14.9541 37.5996 17.4818 37.5996 20.5149C37.5996 23.548 40.2146 26.0757 43.2513 26.0757C44.9384 26.0757 46.1193 25.5702 47.1316 24.4749C48.1438 23.4638 48.4812 22.0315 48.4812 20.9362C48.4812 20.5992 48.4812 20.2621 48.3969 20.0094H43.167ZM81.4637 21.1889C81.1263 20.3464 80.2823 18.914 78.427 18.914C76.5712 18.914 75.0528 20.3464 75.0528 22.537C75.0528 24.5591 76.5712 26.1599 78.5955 26.1599C80.1981 26.1599 81.2105 25.1489 81.548 24.5591L80.3671 23.7166C79.9454 24.3063 79.4389 24.7276 78.5955 24.7276C77.7521 24.7276 77.2456 24.3906 76.8239 23.6323L81.6322 21.6102L81.4637 21.1889ZM76.5712 22.3685C76.5712 21.0204 77.6678 20.2621 78.427 20.2621C79.0172 20.2621 79.6079 20.5992 79.7764 21.0204L76.5712 22.3685ZM72.6063 25.8229H74.2089V15.2911H72.6063V25.8229ZM70.076 19.6723C69.6538 19.2511 68.9793 18.8298 68.1354 18.8298C66.3643 18.8298 64.6769 20.4306 64.6769 22.4528C64.6769 24.4749 66.2801 25.9915 68.1354 25.9915C68.9793 25.9915 69.6538 25.5702 69.9912 25.1489H70.076V25.6544C70.076 27.0025 69.3168 27.7608 68.1354 27.7608C67.2077 27.7608 66.5328 27.0868 66.3643 26.497L65.0144 27.0868C65.4361 28.0135 66.4485 29.1931 68.2201 29.1931C70.076 29.1931 71.5943 28.0978 71.5943 25.4859V19.0826H70.076V19.6723ZM68.2201 24.6434C67.1235 24.6434 66.1953 23.7166 66.1953 22.4528C66.1953 21.1889 67.1235 20.2621 68.2201 20.2621C69.3168 20.2621 70.1602 21.1889 70.1602 22.4528C70.1602 23.7166 69.3168 24.6434 68.2201 24.6434ZM88.8023 15.2911H85.0064V25.8229H86.609V21.863H88.8023C90.5734 21.863 92.2608 20.5992 92.2608 18.5771C92.2608 16.5549 90.5734 15.2911 88.8023 15.2911ZM88.8866 20.4306H86.609V16.8077H88.8866C90.0675 16.8077 90.7424 17.8188 90.7424 18.5771C90.6582 19.4196 89.9832 20.4306 88.8866 20.4306ZM98.5875 18.914C97.4061 18.914 96.2252 19.4196 95.8035 20.5149L97.2376 21.1047C97.5751 20.5149 98.081 20.3464 98.6717 20.3464C99.5152 20.3464 100.274 20.8519 100.359 21.6945V21.7787C100.106 21.6102 99.4309 21.3575 98.756 21.3575C97.2376 21.3575 95.7192 22.2 95.7192 23.7166C95.7192 25.1489 96.9844 26.0757 98.3343 26.0757C99.4309 26.0757 99.9369 25.5702 100.359 25.0647H100.443V25.9072H101.961V21.863C101.793 19.9251 100.359 18.914 98.5875 18.914ZM98.4185 24.6434C97.9125 24.6434 97.1534 24.3906 97.1534 23.7166C97.1534 22.874 98.081 22.6213 98.8402 22.6213C99.5152 22.6213 99.8526 22.7898 100.274 22.9583C100.106 23.9694 99.2619 24.6434 98.4185 24.6434ZM107.275 19.0826L105.504 23.6323H105.42L103.564 19.0826H101.877L104.661 25.4859L103.058 29.0246H104.661L108.963 19.0826H107.275ZM93.1042 25.8229H94.7068V15.2911H93.1042V25.8229Z" fill="black"/>
<path d="M11.2815 27.9289C10.9441 27.7604 10.7754 27.3392 10.7754 26.9179C10.7754 26.8336 10.7754 26.6651 10.7754 26.5809C10.7754 20.3461 10.7754 14.1112 10.7754 7.96061C10.7754 7.62359 10.8597 7.37086 10.9441 7.03383C11.0285 6.8653 11.1972 6.69681 11.3659 6.52832C14.9931 10.1512 18.5359 13.7742 22.0788 17.3971C18.4516 20.7673 14.9087 24.306 11.2815 27.9289Z" fill="black"/>
<path d="M25.6209 13.69C24.6086 14.7011 23.512 15.7121 22.4998 16.8074C19.1256 13.353 15.6671 9.89854 12.293 6.44411C12.293 6.44411 12.293 6.35986 12.3773 6.35986C16.7637 8.80323 21.1501 11.2466 25.6209 13.69Z" fill="black"/>
<path d="M12.293 27.9289C15.6671 24.5587 19.1256 21.1886 22.4998 17.8184C23.4276 18.7451 24.4399 19.672 25.5365 20.683C21.1501 23.1264 16.7637 25.5698 12.3773 27.9289H12.293Z" fill="black"/>
<path d="M26.1273 20.3459C25.0307 19.3349 24.0185 18.3238 22.9219 17.3128C24.0185 16.2175 25.1151 15.1222 26.2116 14.0269C26.5491 14.1953 26.8865 14.3639 27.2239 14.6166C28.0674 15.1222 28.9953 15.5434 29.8389 16.049C30.0919 16.1332 30.2606 16.3017 30.4293 16.5545C30.7667 16.9757 30.7667 17.397 30.4293 17.8183C30.2606 17.9868 30.0919 18.1553 29.8389 18.2396C28.6579 18.9979 27.3926 19.6719 26.1273 20.3459Z" fill="black"/>
</g>
<defs>
<clipPath id="clip0_10876_145921">
<rect width="120" height="35.2239" fill="white"/>
</clipPath>
</defs>
</svg>
