<svg width="1676" height="909" viewBox="0 0 1676 909" fill="none" xmlns="http://www.w3.org/2000/svg">
<rect x="-1" width="1676" height="909" fill="#F4F6F6"/>
<mask id="mask0" mask-type="alpha" maskUnits="userSpaceOnUse" x="0" y="5" width="1679" height="904">
<rect y="5" width="1679" height="904" fill="#F4F6F6"/>
</mask>
<g mask="url(#mask0)">
<path d="M1765.07 659.896C1662.89 643.396 1470.15 652.196 1516.63 819.396C1574.73 1028.4 1278.2 850.896 1263.68 993.396C1249.15 1135.9 1339.81 1259.9 1047.79 1257.9" stroke="white" stroke-width="90" stroke-linecap="round"/>
<circle cx="1675" cy="698" r="11.5" stroke="#F16521" stroke-width="5"/>
<circle cx="2" cy="798" r="25" fill="#F16521"/>
<path d="M351.462 823C350.024 831.887 350.791 848.65 365.358 844.607C383.568 839.554 368.103 865.343 380.518 866.607C392.934 867.87 403.737 859.985 403.563 885.382" stroke="#3EA69B" stroke-width="7.84135" stroke-linecap="round"/>
<path fill-rule="evenodd" clip-rule="evenodd" d="M152.551 -101.559L152.517 -100.375C149.939 -100.452 147.355 -100.49 144.768 -100.49C143.473 -100.49 142.185 -100.481 140.897 -100.462L140.88 -101.646C142.174 -101.665 143.468 -101.675 144.768 -101.675C147.367 -101.675 149.961 -101.636 152.551 -101.559ZM175.702 -98.6456L175.838 -99.8219C171.983 -100.285 168.112 -100.661 164.226 -100.951L164.141 -99.77C168.009 -99.4814 171.864 -99.1064 175.702 -98.6456ZM198.868 -95.9924L198.63 -94.8331C194.845 -95.6404 191.038 -96.3625 187.212 -96.9987L187.4 -98.1677C191.243 -97.5287 195.066 -96.8033 198.868 -95.9924ZM221.155 -88.9449L221.495 -90.0778C217.778 -91.2323 214.035 -92.3029 210.266 -93.2884L209.976 -92.1411C213.728 -91.16 217.455 -90.0943 221.155 -88.9449ZM243.471 -82.1394L243.033 -81.0419C239.447 -82.5244 235.828 -83.9256 232.177 -85.2442L232.566 -86.3605C236.233 -85.036 239.869 -83.6285 243.471 -82.1394ZM264.145 -71.1742L264.677 -72.2274C261.22 -74.0377 257.724 -75.7695 254.19 -77.4215L253.704 -76.3451C257.222 -74.7005 260.703 -72.9763 264.145 -71.1742ZM284.838 -60.4914L284.216 -59.4902C280.943 -61.5966 277.624 -63.6288 274.262 -65.585L274.84 -66.6134C278.217 -64.6484 281.55 -62.6072 284.838 -60.4914ZM303.299 -45.966L304.006 -46.9071C300.916 -49.3109 297.774 -51.6447 294.583 -53.9067L293.918 -52.9347C297.095 -50.6827 300.223 -48.3592 303.299 -45.966ZM321.914 -31.651L321.128 -30.7772C318.272 -33.4378 315.358 -36.0339 312.389 -38.5633L313.137 -39.4716C316.118 -36.9309 319.045 -34.3233 321.914 -31.651ZM337.557 -14.0568L338.415 -14.8566C335.79 -17.7758 333.102 -20.6358 330.352 -23.4343L329.529 -22.5967C332.266 -19.8106 334.943 -16.9632 337.557 -14.0568ZM353.406 3.36919L352.481 4.08855C350.129 0.95694 347.709 -2.12146 345.223 -5.14429L346.116 -5.90458C348.613 -2.86835 351.043 0.223694 353.406 3.36919ZM365.756 23.4889L366.74 22.8558C364.663 19.5129 362.513 16.2173 360.292 12.9713L359.337 13.6483C361.548 16.8798 363.688 20.1609 365.756 23.4889ZM378.296 43.418L377.261 43.9598C375.489 40.4538 373.64 36.9888 371.717 33.5672L372.727 32.9789C374.659 36.4158 376.516 39.8963 378.296 43.418ZM386.964 65.4698L388.043 65.0243C386.58 61.3574 385.037 57.7253 383.416 54.1305L382.358 54.6247C383.972 58.2035 385.508 61.8193 386.964 65.4698ZM395.846 87.4175L394.733 87.763C393.602 83.9888 392.389 80.2433 391.094 76.5287L392.191 76.1328C393.492 79.864 394.71 83.6264 395.846 87.4175ZM400.501 110.64L401.641 110.397C400.843 106.52 399.961 102.667 398.995 98.8379L397.868 99.1323C398.829 102.944 399.707 106.781 400.501 110.64ZM405.401 133.837L404.245 133.975C403.791 130.056 403.253 126.153 402.63 122.27L403.778 122.079C404.404 125.979 404.945 129.899 405.401 133.837ZM405.943 157.572L407.106 157.537C406.993 153.574 406.795 149.622 406.512 145.685L405.351 145.771C405.633 149.691 405.83 153.626 405.943 157.572ZM406.765 181.275L405.603 181.206C405.829 177.281 405.97 173.343 406.027 169.394L407.19 169.411C407.134 173.377 406.992 177.332 406.765 181.275ZM403.222 204.736L404.373 204.91C404.942 201.001 405.426 197.074 405.825 193.13L404.668 193.009C404.27 196.935 403.788 200.845 403.222 204.736ZM399.923 228.243L398.791 227.965C399.697 224.139 400.52 220.289 401.259 216.417L402.401 216.643C401.659 220.532 400.833 224.4 399.923 228.243ZM392.346 250.668L393.449 251.048C394.693 247.301 395.856 243.525 396.936 239.721L395.818 239.392C394.743 243.179 393.585 246.939 392.346 250.668ZM384.985 273.199L383.92 272.72C385.483 269.116 386.967 265.476 388.371 261.803L389.456 262.232C388.046 265.922 386.555 269.579 384.985 273.199ZM373.635 293.836L374.654 294.408C376.534 290.944 378.339 287.438 380.066 283.891L379.023 283.365C377.303 286.896 375.507 290.387 373.635 293.836ZM362.499 314.627L361.534 313.965C363.698 310.699 365.792 307.384 367.812 304.024L368.805 304.642C366.776 308.017 364.673 311.347 362.499 314.627ZM347.685 332.981L348.589 333.727C351.041 330.654 353.427 327.527 355.743 324.346L354.808 323.641C352.502 326.807 350.127 329.921 347.685 332.981ZM333.083 351.488L332.248 350.663C334.946 347.835 337.583 344.947 340.155 342L341.025 342.787C338.441 345.746 335.793 348.648 333.083 351.488ZM315.323 366.902L316.083 367.799C319.027 365.215 321.915 362.565 324.744 359.851L323.946 358.989C321.129 361.691 318.254 364.329 315.323 366.902ZM297.749 382.503L297.069 381.541C300.212 379.243 303.303 376.874 306.343 374.437L307.063 375.367C304.01 377.816 300.905 380.195 297.749 382.503ZM277.643 394.459L278.235 395.478C281.58 393.464 284.881 391.374 288.134 389.21L287.498 388.219C284.259 390.373 280.973 392.453 277.643 394.459ZM257.662 406.642L257.161 405.573C260.657 403.875 264.116 402.098 267.534 400.243L268.081 401.288C264.648 403.151 261.174 404.936 257.662 406.642ZM235.763 414.794L236.168 415.904C239.817 414.525 243.433 413.062 247.015 411.519L246.561 410.428C242.995 411.965 239.395 413.42 235.763 414.794ZM213.943 423.173L213.637 422.03C217.376 420.993 221.088 419.872 224.773 418.667L225.129 419.795C221.428 421.005 217.698 422.131 213.943 423.173ZM190.978 427.219L191.183 428.385C195.016 427.689 198.829 426.906 202.619 426.039L202.363 424.883C198.59 425.747 194.794 426.526 190.978 427.219ZM168.061 431.512L167.959 430.332C171.822 429.986 175.671 429.554 179.503 429.036L179.656 430.21C175.807 430.73 171.941 431.165 168.061 431.512ZM144.762 432.55V431.366C148.641 431.366 152.51 431.28 156.367 431.108L156.418 432.292C152.544 432.464 148.658 432.55 144.762 432.55ZM129.295 -100.032L129.227 -101.215C125.341 -100.984 121.467 -100.666 117.609 -100.263L117.728 -99.0843C121.569 -99.4861 125.425 -99.8022 129.295 -100.032ZM106.028 -98.7862L106.199 -97.6144C102.365 -97.0373 98.5505 -96.3741 94.7562 -95.6258L94.5348 -96.7887C98.346 -97.5404 102.178 -98.2065 106.028 -98.7862ZM83.3732 -93.1098L83.1007 -94.2615C79.315 -93.3338 75.5536 -92.3207 71.8188 -91.2232L72.1416 -90.0852C75.8598 -91.1777 79.6044 -92.1863 83.3732 -93.1098ZM60.6915 -87.6769L61.0641 -86.5547C57.3932 -85.2923 53.7525 -83.9469 50.1441 -82.5197L49.7225 -83.6238C53.347 -85.0574 57.0042 -86.4088 60.6915 -87.6769ZM39.4174 -77.9933L38.9477 -79.0771C35.3915 -77.4808 31.8716 -75.8041 28.3903 -74.0486L28.9071 -72.9872C32.3728 -74.7349 35.8771 -76.4041 39.4174 -77.9933ZM18.0174 -68.5201L18.5803 -67.4833C15.194 -65.5791 11.8499 -63.5985 8.55029 -61.5431L7.9427 -62.5534C11.257 -64.6179 14.616 -66.6074 18.0174 -68.5201ZM-1.1968 -55.1653L-1.84777 -56.1472C-5.07231 -53.933 -8.24832 -51.6462 -11.3734 -49.2886L-10.6803 -48.337C-7.56905 -50.6842 -4.40708 -52.9609 -1.1968 -55.1653ZM-20.5947 -42.0045L-19.8609 -41.0851C-22.8676 -38.5995 -25.82 -36.0465 -28.716 -33.4279L-29.489 -34.3134C-26.5802 -36.9436 -23.6147 -39.508 -20.5947 -42.0045ZM-37.2355 -25.3744L-38.0462 -26.2243C-40.8363 -23.4674 -43.5662 -20.6481 -46.2338 -17.7685L-45.387 -16.9559C-42.7311 -19.8228 -40.0132 -22.6297 -37.2355 -25.3744ZM-54.0563 -8.94141L-53.1749 -8.16773C-55.7027 -5.1852 -58.1655 -2.1462 -60.5611 0.946915L-61.4752 0.213623C-59.0689 -2.8932 -56.5953 -5.94566 -54.0563 -8.94141ZM-67.5746 10.4285L-68.5198 9.73728C-70.7894 12.9518 -72.9887 16.2171 -75.1159 19.5308L-74.1416 20.1786C-72.0238 16.8797 -69.8342 13.6288 -67.5746 10.4285ZM-81.2819 29.6183L-80.2802 30.2215C-82.2513 33.6121 -84.1482 37.0471 -85.9693 40.524L-86.9964 39.9668C-85.1671 36.4744 -83.2618 33.024 -81.2819 29.6183ZM-91.1561 50.9768L-92.2063 50.4663C-93.8819 54.0371 -95.4793 57.6461 -96.9971 61.2912L-95.9255 61.7534C-94.4144 58.1246 -92.8241 54.5316 -91.1561 50.9768ZM-101.313 72.3384L-100.223 72.7513C-101.571 76.4421 -102.839 80.1649 -104.025 83.9173L-105.133 83.5545C-103.942 79.7853 -102.668 76.0458 -101.313 72.3384ZM-107.339 95.2668L-108.461 94.955C-109.484 98.7695 -110.424 102.61 -111.279 106.474L-110.144 106.735C-109.292 102.888 -108.357 99.0643 -107.339 95.2668ZM-113.594 118.142L-112.448 118.351C-113.128 122.224 -113.724 126.117 -114.235 130.028L-115.389 129.871C-114.875 125.943 -114.277 122.033 -113.594 118.142ZM-115.513 141.803L-116.673 141.699C-117.013 145.634 -117.269 149.582 -117.44 153.544L-116.277 153.596C-116.107 149.652 -115.852 145.72 -115.513 141.803ZM-117.695 165.424L-116.531 165.424L-116.531 165.436C-116.531 169.385 -116.447 173.323 -116.278 177.249L-117.441 177.3C-117.61 173.357 -117.695 169.403 -117.695 165.436L-117.695 165.424ZM-115.516 189.046L-116.675 189.15C-116.334 193.099 -115.907 197.034 -115.396 200.951L-114.242 200.795C-114.751 196.895 -115.176 192.978 -115.516 189.046ZM-113.602 212.682L-112.457 212.474C-111.776 216.357 -111.01 220.221 -110.161 224.061L-111.297 224.321C-112.149 220.463 -112.918 216.583 -113.602 212.682ZM-107.358 235.534L-108.481 235.846C-107.458 239.668 -106.351 243.464 -105.162 247.23L-104.054 246.868C-105.238 243.118 -106.339 239.34 -107.358 235.534ZM-101.348 258.441L-100.257 258.029C-98.9078 261.726 -97.4776 265.391 -95.9679 269.021L-97.0397 269.482C-98.5562 265.836 -99.9928 262.155 -101.348 258.441ZM-91.1883 279.83L-92.2387 280.34C-90.5626 283.915 -88.8084 287.451 -86.9777 290.945L-85.9507 290.387C-87.7733 286.909 -89.5196 283.389 -91.1883 279.83ZM-81.2693 301.279L-80.2676 300.675C-78.297 304.065 -76.2525 307.409 -74.136 310.705L-75.1104 311.353C-77.2363 308.042 -79.2898 304.683 -81.2693 301.279ZM-67.5747 320.447L-68.5199 321.138C-66.252 324.35 -63.9144 327.511 -61.509 330.618L-60.5948 329.885C-62.9896 326.792 -65.3169 323.645 -67.5747 320.447ZM-54.0722 339.798L-53.1908 339.024C-50.663 342.007 -48.0707 344.933 -45.4159 347.8L-46.2629 348.612C-48.9295 345.733 -51.5332 342.794 -54.0722 339.798ZM-37.253 356.232L-38.0639 357.082C-35.2755 359.838 -32.4276 362.531 -29.5225 365.159L-28.7493 364.273C-31.6416 361.657 -34.4769 358.976 -37.253 356.232ZM-20.5947 372.88L-19.8609 371.96C-16.8548 374.445 -13.7951 376.863 -10.6841 379.21L-11.3772 380.161C-14.502 377.804 -17.5753 375.376 -20.5947 372.88ZM-1.17644 386.055L-1.82731 387.037C1.39606 389.25 4.66729 391.389 7.98398 393.455L8.59138 392.444C5.2894 390.388 2.03266 388.258 -1.17644 386.055ZM18.0389 399.408L18.6017 398.371C21.9904 400.276 25.4206 402.104 28.8901 403.854L28.3733 404.915C24.8883 403.158 21.4427 401.321 18.0389 399.408ZM39.3492 408.838L38.8792 409.922C42.4361 411.52 46.0287 413.037 49.6545 414.472L50.0764 413.368C46.4668 411.939 42.8903 410.429 39.3492 408.838ZM60.62 418.528L60.993 417.406C64.6585 418.667 68.3534 419.846 72.0755 420.941L71.7523 422.079C68.0136 420.979 64.302 419.795 60.62 418.528ZM83.324 423.973L83.0513 425.125C86.8277 426.051 90.6277 426.892 94.4491 427.647L94.6709 426.484C90.8666 425.733 87.0835 424.895 83.324 423.973ZM105.952 429.65L106.123 428.478C109.946 429.055 113.787 429.546 117.644 429.951L117.525 431.129C113.651 430.723 109.792 430.229 105.952 429.65ZM129.243 430.904L129.175 432.087C133.048 432.318 136.934 432.463 140.831 432.521L140.848 431.336C136.968 431.278 133.099 431.134 129.243 430.904Z" fill="#D3D3D3"/>
<path fill-rule="evenodd" clip-rule="evenodd" d="M150.066 -174.958L150.048 -173.778C148.291 -173.806 146.532 -173.82 144.771 -173.82C142.65 -173.82 140.54 -173.8 138.431 -173.76L138.409 -174.94C140.526 -174.98 142.643 -175 144.771 -175C146.538 -175 148.303 -174.986 150.066 -174.958ZM173.276 -172.606L173.374 -173.781C169.507 -174.112 165.629 -174.376 161.741 -174.572L161.683 -173.394C165.558 -173.198 169.423 -172.935 173.276 -172.606ZM196.532 -170.978L196.354 -169.812C192.53 -170.412 188.693 -170.945 184.841 -171.411L184.979 -172.583C188.844 -172.116 192.695 -171.58 196.532 -170.978ZM219.208 -165.393L219.466 -166.544C215.679 -167.417 211.873 -168.223 208.051 -168.962L207.833 -167.802C211.642 -167.066 215.434 -166.263 219.208 -165.393ZM242.036 -160.495L241.7 -159.366C237.994 -160.501 234.267 -161.571 230.521 -162.575L230.818 -163.716C234.578 -162.708 238.318 -161.635 242.036 -160.495ZM263.692 -151.767L264.106 -152.87C260.474 -154.27 256.817 -155.607 253.136 -156.879L252.76 -155.762C256.428 -154.495 260.073 -153.163 263.692 -151.767ZM285.601 -143.697L285.112 -142.626C281.597 -144.274 278.054 -145.861 274.483 -147.385L274.935 -148.473C278.518 -146.943 282.074 -145.351 285.601 -143.697ZM305.855 -131.99L306.416 -133.024C303.01 -134.924 299.572 -136.764 296.102 -138.543L295.577 -137.49C299.034 -135.717 302.461 -133.883 305.855 -131.99ZM326.45 -120.907L325.819 -119.916C322.563 -122.044 319.27 -124.115 315.942 -126.128L316.539 -127.141C319.878 -125.121 323.182 -123.043 326.45 -120.907ZM344.856 -106.508L345.552 -107.453C342.438 -109.812 339.284 -112.116 336.092 -114.364L335.428 -113.395C338.609 -111.155 341.752 -108.859 344.856 -106.508ZM363.732 -92.6613L362.973 -91.7671C360.038 -94.3289 357.059 -96.8392 354.039 -99.2966L354.767 -100.217C357.798 -97.751 360.787 -95.232 363.732 -92.6613ZM380.049 -75.7878L380.868 -76.6268C378.104 -79.3981 375.293 -82.1209 372.436 -84.7938L371.647 -83.9267C374.494 -81.263 377.295 -78.5496 380.049 -75.7878ZM396.892 -59.4094L396.018 -58.6297C393.46 -61.5756 390.853 -64.4767 388.196 -67.3315L389.043 -68.1412C391.708 -65.2766 394.325 -62.3655 396.892 -59.4094ZM410.772 -40.4037L411.696 -41.1203C409.336 -44.2508 406.923 -47.3398 404.457 -50.3859L403.557 -49.6374C406.015 -46.6018 408.42 -43.5234 410.772 -40.4037ZM425.223 -21.8287L424.252 -21.1788C422.118 -24.4575 419.928 -27.6985 417.683 -30.9003L418.631 -31.584C420.884 -28.371 423.082 -25.1188 425.223 -21.8287ZM436.368 -1.07912L437.382 -1.65915C435.472 -5.08879 433.504 -8.48445 431.479 -11.8446L430.486 -11.2293C432.504 -7.88074 434.465 -4.49686 436.368 -1.07912ZM448.112 19.2842L447.061 19.7914C445.395 16.2421 443.668 12.723 441.88 9.23555L442.913 8.69148C444.707 12.1911 446.44 15.7225 448.112 19.2842ZM456.316 41.4167L457.399 40.9851C455.979 37.3195 454.495 33.6803 452.95 30.069L451.882 30.5387C453.422 34.1374 454.9 37.7639 456.316 41.4167ZM465.164 63.2813L464.053 63.6349C462.893 59.8898 461.668 56.1672 460.38 52.4686L461.478 52.0758C462.77 55.7873 463.999 59.5229 465.164 63.2813ZM470.244 86.3709L471.376 86.0969C470.473 82.2596 469.504 78.4414 468.47 74.6437L467.348 74.9577C468.378 78.7421 469.344 82.547 470.244 86.3709ZM475.994 109.26L474.846 109.454C474.211 105.58 473.511 101.723 472.746 97.882L473.886 97.6483C474.655 101.503 475.357 105.374 475.994 109.26ZM477.852 132.806L479.011 132.694C478.641 128.766 478.205 124.849 477.702 120.946L476.548 121.099C477.049 124.988 477.484 128.891 477.852 132.806ZM480.425 156.292L479.261 156.323C479.159 152.39 478.991 148.466 478.756 144.552L479.918 144.481C480.153 148.408 480.322 152.345 480.425 156.292ZM479.082 179.894L480.244 179.944C480.407 176.014 480.503 172.074 480.534 168.126L479.37 168.117C479.34 172.052 479.244 175.978 479.082 179.894ZM478.464 203.542L477.307 203.412C477.735 199.514 478.098 195.604 478.394 191.683L479.554 191.773C479.257 195.708 478.894 199.632 478.464 203.542ZM473.93 226.748L475.075 226.96C475.772 223.088 476.403 219.2 476.968 215.297L475.816 215.126C475.253 219.015 474.624 222.889 473.93 226.748ZM470.089 250.056L468.962 249.763C469.921 245.961 470.815 242.14 471.644 238.301L472.781 238.553C471.949 242.406 471.052 246.24 470.089 250.056ZM462.415 272.382L463.52 272.754C464.743 269.016 465.903 265.255 466.998 261.472L465.881 261.14C464.79 264.909 463.635 268.657 462.415 272.382ZM455.393 294.946L454.317 294.497C455.791 290.865 457.203 287.207 458.553 283.524L459.644 283.935C458.29 287.631 456.873 291.302 455.393 294.946ZM444.719 315.97L445.762 316.494C447.489 312.963 449.156 309.402 450.761 305.811L449.701 305.324C448.101 308.902 446.44 312.451 444.719 315.97ZM434.681 337.296L433.676 336.699C435.635 333.31 437.535 329.887 439.376 326.431L440.4 326.992C438.553 330.46 436.646 333.895 434.681 337.296ZM421.234 356.61L422.195 357.276C424.388 354.021 426.526 350.728 428.607 347.398L427.624 346.767C425.55 350.085 423.42 353.367 421.234 356.61ZM408.448 376.234L407.535 375.503C409.935 372.421 412.282 369.298 414.575 366.134L415.513 366.833C413.212 370.008 410.856 373.142 408.448 376.234ZM392.505 393.488L393.366 394.281C395.98 391.364 398.545 388.401 401.058 385.394L400.17 384.631C397.665 387.628 395.11 390.58 392.505 393.488ZM377.08 411.241L376.275 410.389C379.069 407.674 381.817 404.909 384.517 402.098L385.351 402.921C382.641 405.742 379.884 408.516 377.08 411.241ZM358.926 426.118L359.672 427.024C362.658 424.5 365.601 421.923 368.499 419.296L367.723 418.416C364.835 421.034 361.902 423.602 358.926 426.118ZM341.257 441.528L340.576 440.572C343.712 438.273 346.81 435.919 349.867 433.512L350.581 434.443C347.513 436.859 344.405 439.221 341.257 441.528ZM321.268 453.713L321.883 454.715C325.185 452.632 328.452 450.491 331.682 448.293L331.033 447.313C327.815 449.504 324.559 451.637 321.268 453.713ZM301.67 466.497L301.125 465.454C304.548 463.616 307.939 461.718 311.297 459.761L311.877 460.784C308.508 462.748 305.105 464.652 301.67 466.497ZM280.25 475.734L280.722 476.812C284.278 475.214 287.805 473.553 291.303 471.83L290.794 470.769C287.309 472.486 283.794 474.141 280.25 475.734ZM259.084 485.635L258.688 484.525C262.332 483.187 265.952 481.786 269.545 480.32L269.98 481.415C266.373 482.885 262.741 484.292 259.084 485.635ZM236.538 491.776L236.857 492.911C240.599 491.831 244.32 490.686 248.019 489.475L247.661 488.352C243.976 489.559 240.268 490.7 236.538 491.776ZM214.24 498.578L214.001 497.424C217.792 496.615 221.566 495.74 225.322 494.799L225.601 495.944C221.832 496.888 218.045 497.767 214.24 498.578ZM191.087 501.47L191.247 502.639C195.105 502.097 198.95 501.488 202.779 500.812L202.58 499.649C198.764 500.323 194.932 500.93 191.087 501.47ZM168.079 505.067L167.999 503.89C171.873 503.62 175.736 503.284 179.586 502.88L179.706 504.054C175.842 504.459 171.966 504.797 168.079 505.067ZM144.762 505.875V504.695C148.64 504.695 152.51 504.628 156.372 504.495L156.412 505.674C152.537 505.808 148.653 505.875 144.762 505.875ZM126.824 -173.341L126.762 -174.519C122.873 -174.311 118.995 -174.035 115.127 -173.692L115.229 -172.517C119.083 -172.859 122.948 -173.133 126.824 -173.341ZM103.524 -172.458L103.665 -171.287C99.8204 -170.809 95.9889 -170.265 92.1718 -169.654L91.9904 -170.82C95.8207 -171.433 99.6656 -171.979 103.524 -172.458ZM80.6963 -167.609L80.4747 -168.767C76.6525 -168.016 72.847 -167.197 69.0595 -166.313L69.3209 -165.163C73.0952 -166.045 76.8874 -166.86 80.6963 -167.609ZM57.7549 -163.46L58.0557 -162.32C54.3101 -161.304 50.5847 -160.222 46.8807 -159.075L46.5407 -160.204C50.2577 -161.355 53.9962 -162.44 57.7549 -163.46ZM35.8172 -155.433L35.4384 -156.549C31.7638 -155.267 28.113 -153.92 24.4874 -152.509L24.9044 -151.408C28.5173 -152.813 32.1554 -154.156 35.8172 -155.433ZM13.6632 -148.076L14.118 -146.99C10.555 -145.456 7.01941 -143.86 3.51266 -142.202L3.0208 -143.272C6.53979 -144.936 10.0877 -146.537 13.6632 -148.076ZM-6.93874 -137.034L-7.46712 -138.086C-10.9312 -136.296 -14.364 -134.446 -17.7641 -132.536L-17.2 -131.503C-13.8117 -133.407 -10.3908 -135.251 -6.93874 -137.034ZM-27.8503 -126.634L-27.2511 -125.622C-30.5693 -123.602 -33.8527 -121.524 -37.0998 -119.388L-37.7332 -120.378C-34.4748 -122.521 -31.18 -124.607 -27.8503 -126.634ZM-46.7466 -112.8L-47.4134 -113.767C-50.5992 -111.509 -53.7461 -109.195 -56.853 -106.826L-56.1535 -105.883C-53.0574 -108.244 -49.9212 -110.55 -46.7466 -112.8ZM-66.0575 -99.5527L-65.3262 -98.6347C-68.3409 -96.1663 -71.3134 -93.645 -74.2422 -91.0723L-75.0044 -91.9642C-72.0653 -94.5458 -69.0826 -97.0757 -66.0575 -99.5527ZM-82.8953 -83.2021L-83.6873 -84.0667C-86.5341 -81.3862 -89.3351 -78.656 -92.0891 -75.8775L-91.2681 -75.041C-88.5236 -77.81 -85.7323 -80.5308 -82.8953 -83.2021ZM-100.235 -67.369L-99.3862 -66.5619C-102.036 -63.697 -104.636 -60.786 -107.186 -57.8302L-108.062 -58.6071C-105.503 -61.5732 -102.894 -64.4942 -100.235 -67.369ZM-114.71 -48.7991L-115.612 -49.5448C-118.069 -46.49 -120.473 -43.3924 -122.824 -40.2534L-121.897 -39.5398C-119.554 -42.6679 -117.158 -45.7548 -114.71 -48.7991ZM-129.645 -30.8158L-128.694 -30.1348C-130.928 -26.9294 -133.108 -23.6852 -135.231 -20.4035L-136.204 -21.0507C-134.074 -24.3438 -131.887 -27.5993 -129.645 -30.8158ZM-141.454 -10.4111L-142.449 -11.0236C-144.466 -7.65536 -146.426 -4.25174 -148.327 -0.814224L-147.312 -0.237122C-145.417 -3.6627 -143.464 -7.05452 -141.454 -10.4111ZM-153.857 9.60728L-152.823 10.1482C-154.598 13.638 -156.313 17.1593 -157.968 20.7106L-159.02 20.2066C-157.36 16.6429 -155.638 13.1093 -153.857 9.60728ZM-162.743 31.4393L-163.812 30.9728C-165.348 34.5915 -166.822 38.238 -168.233 41.9108L-167.148 42.3391C-165.742 38.6791 -164.273 35.0454 -162.743 31.4393ZM-172.284 53.0279L-171.186 53.4174C-172.464 57.1226 -173.678 60.8516 -174.828 64.6031L-175.94 64.2528C-174.785 60.4881 -173.567 56.746 -172.284 53.0279ZM-178.084 75.9171L-179.207 75.6065C-180.229 79.4057 -181.187 83.2251 -182.079 87.0635L-180.946 87.3341C-180.057 83.5092 -179.103 79.703 -178.084 75.9171ZM-184.557 98.6316L-183.416 98.8618C-184.171 102.71 -184.86 106.574 -185.484 110.454L-186.633 110.265C-186.007 106.371 -185.315 102.493 -184.557 98.6316ZM-187.157 122.145L-188.312 121.996C-188.802 125.899 -189.227 129.816 -189.584 133.745L-188.425 133.854C-188.069 129.938 -187.646 126.035 -187.157 122.145ZM-190.457 145.558L-189.295 145.626C-189.517 149.54 -189.674 153.464 -189.764 157.397L-190.928 157.369C-190.837 153.423 -190.68 149.486 -190.457 145.558ZM-189.836 169.19L-191 169.202C-190.958 173.146 -190.85 177.08 -190.675 181.006L-189.513 180.953C-189.686 177.041 -189.794 173.119 -189.836 169.19ZM-189.949 192.828L-188.789 192.735C-188.481 196.655 -188.107 200.563 -187.667 204.458L-188.823 204.593C-189.265 200.684 -189.64 196.762 -189.949 192.828ZM-186.146 216.133L-187.297 216.308C-186.72 220.207 -186.078 224.091 -185.37 227.96L-184.225 227.744C-184.931 223.889 -185.571 220.018 -186.146 216.133ZM-183.037 239.566L-181.901 239.31C-181.061 243.145 -180.155 246.962 -179.185 250.759L-180.312 251.055C-181.285 247.245 -182.194 243.414 -183.037 239.566ZM-176.08 262.094L-177.196 262.429C-176.09 266.208 -174.919 269.966 -173.685 273.7L-172.581 273.325C-173.811 269.604 -174.978 265.86 -176.08 262.094ZM-169.77 284.885L-168.68 284.471C-167.319 288.153 -165.895 291.809 -164.409 295.438L-165.484 295.891C-166.976 292.249 -168.405 288.58 -169.77 284.885ZM-159.765 306.242L-160.824 306.732C-159.209 310.317 -157.532 313.873 -155.795 317.398L-154.754 316.871C-156.485 313.358 -158.155 309.814 -159.765 306.242ZM-150.424 327.838L-149.402 327.274C-147.551 330.725 -145.641 334.143 -143.673 337.527L-144.675 338.126C-146.65 334.731 -148.567 331.301 -150.424 327.838ZM-137.59 347.58L-138.572 348.215C-136.483 351.536 -134.337 354.821 -132.136 358.067L-131.177 357.399C-133.37 354.164 -135.509 350.89 -137.59 347.58ZM-125.356 367.703L-124.421 367.002C-122.117 370.159 -119.759 373.275 -117.349 376.35L-118.261 377.084C-120.679 373.999 -123.045 370.871 -125.356 367.703ZM-109.946 385.466L-110.832 386.231C-108.308 389.232 -105.733 392.187 -103.109 395.097L-102.25 394.301C-104.865 391.401 -107.431 388.455 -109.946 385.466ZM-95.0959 403.68L-94.2646 402.854C-91.5529 405.66 -88.7935 408.419 -85.9879 411.128L-86.7906 411.983C-89.6059 409.264 -92.3748 406.496 -95.0959 403.68ZM-77.4161 419.124L-78.1892 420.006C-75.284 422.623 -72.3345 425.189 -69.3421 427.703L-68.5995 426.795C-71.5816 424.289 -74.5209 421.732 -77.4161 419.124ZM-60.2461 435.08L-59.5348 434.146C-56.4684 436.546 -53.3612 438.892 -50.2149 441.183L-50.8938 442.142C-54.0511 439.843 -57.169 437.489 -60.2461 435.08ZM-40.719 447.849L-41.365 448.831C-38.1323 451.018 -34.8624 453.148 -31.5568 455.219L-30.9448 454.216C-34.2389 452.151 -37.4975 450.029 -40.719 447.849ZM-21.5379 461.258L-20.9607 460.233C-17.5982 462.18 -14.2025 464.068 -10.7748 465.896L-11.3166 466.94C-14.7562 465.106 -18.1638 463.212 -21.5379 461.258ZM-0.379974 471.206L-0.885452 472.269C2.61571 473.98 6.14655 475.63 9.70564 477.217L10.1742 476.137C6.62753 474.555 3.10898 472.911 -0.379974 471.206ZM20.4635 481.788L20.8946 480.692C24.4922 482.147 28.1157 483.537 31.7636 484.864L31.3707 485.975C27.7099 484.643 24.0737 483.248 20.4635 481.788ZM42.7894 488.654L42.435 489.778C46.1357 490.977 49.8587 492.111 53.6025 493.18L53.9178 492.044C50.1871 490.979 46.4771 489.849 42.7894 488.654ZM64.8939 496.186L65.1697 495.039C68.9291 495.969 72.707 496.833 76.5022 497.631L76.266 498.786C72.4575 497.986 68.6664 497.119 64.8939 496.186ZM87.9289 499.822L87.7326 500.985C91.5594 501.649 95.4014 502.246 99.2573 502.775L99.4136 501.606C95.5711 501.078 91.7424 500.483 87.9289 499.822ZM110.877 504.163L110.993 502.989C114.842 503.38 118.701 503.704 122.572 503.961L122.496 505.138C118.612 504.881 114.739 504.555 110.877 504.163ZM134.192 504.529L134.156 505.708C137.679 505.819 141.209 505.875 144.745 505.875L144.745 504.695C141.221 504.695 137.703 504.639 134.192 504.529Z" fill="#D3D3D3"/>
<path fill-rule="evenodd" clip-rule="evenodd" d="M157.658 -12.7054L157.743 -13.897C153.872 -14.1881 149.982 -14.349 146.075 -14.3784L146.067 -13.1836C149.948 -13.1544 153.813 -12.9946 157.658 -12.7054ZM180.872 -10.558L180.634 -9.38854C176.855 -10.2014 173.045 -10.8857 169.207 -11.4396L169.369 -12.6228C173.233 -12.0652 177.069 -11.3763 180.872 -10.558ZM202.828 -3.00061L203.217 -4.12697C199.549 -5.45947 195.836 -6.66626 192.082 -7.74488L191.769 -6.59428C195.497 -5.52289 199.185 -4.32418 202.828 -3.00061ZM224.706 5.39411L224.174 6.45686C220.735 4.64287 217.237 2.94703 213.685 1.37255L214.147 0.27564C217.722 1.86071 221.243 3.56795 224.706 5.39411ZM244.078 18.7474L244.743 17.7669C241.548 15.4833 238.281 13.3094 234.945 11.2491L234.345 12.2729C237.659 14.3195 240.904 16.479 244.078 18.7474ZM262.994 32.7569L262.208 33.6383C259.355 30.9574 256.416 28.3742 253.396 25.8935L254.123 24.9606C257.163 27.4579 260.122 30.0582 262.994 32.7569ZM278.253 50.8551L279.145 50.0882C276.646 47.0238 274.049 44.045 271.358 41.1571L270.517 41.983C273.191 44.8519 275.771 47.8109 278.253 50.8551ZM292.885 69.4079L291.901 70.0469C289.832 66.6911 287.655 63.4068 285.373 60.1995L286.313 59.4948C288.61 62.7235 290.802 66.0297 292.885 69.4079ZM302.978 90.993L304.036 90.4945C302.412 86.862 300.669 83.2873 298.813 79.7759L297.79 80.3459C299.634 83.8339 301.365 87.3848 302.978 90.993ZM312.327 112.881L311.214 113.23C310.084 109.428 308.83 105.67 307.456 101.96L308.544 101.536C309.927 105.27 311.189 109.054 312.327 112.881ZM316.483 136.444L317.631 136.251C317.003 132.299 316.247 128.377 315.365 124.49L314.232 124.761C315.108 128.622 315.859 132.518 316.483 136.444ZM319.852 160.119L318.688 160.154C318.576 156.172 318.336 152.209 317.97 148.268L319.128 148.155C319.497 152.122 319.738 156.111 319.852 160.119ZM317.839 183.957L318.997 184.079C319.395 180.115 319.666 176.127 319.808 172.12L318.645 172.077C318.504 176.057 318.234 180.018 317.839 183.957ZM315.057 207.718L313.926 207.438C314.831 203.584 315.611 199.694 316.264 195.774L317.411 195.975C316.753 199.922 315.968 203.838 315.057 207.718ZM307.042 230.023L308.127 230.455C309.534 226.731 310.82 222.957 311.982 219.139L310.871 218.783C309.717 222.575 308.439 226.324 307.042 230.023ZM298.217 252.217L297.198 251.639C299.067 248.164 300.823 244.624 302.462 241.027L303.516 241.533C301.866 245.155 300.098 248.718 298.217 252.217ZM284.64 271.7L285.575 272.411C287.893 269.201 290.106 265.912 292.212 262.55L291.233 261.904C289.141 265.243 286.942 268.51 284.64 271.7ZM270.449 290.687L269.614 289.855C272.308 287.007 274.909 284.067 277.413 281.042L278.3 281.815C275.779 284.861 273.161 287.82 270.449 290.687ZM252.374 305.815L253.094 306.754C256.152 304.28 259.129 301.703 262.02 299.026L261.241 298.139C258.368 300.798 255.411 303.358 252.374 305.815ZM233.871 320.284L233.278 319.256C236.608 317.232 239.87 315.095 243.061 312.849L243.719 313.834C240.507 316.096 237.223 318.247 233.871 320.284ZM212.559 329.997L213.013 331.097C216.601 329.537 220.135 327.855 223.61 326.054L223.086 324.987C219.633 326.777 216.123 328.448 212.559 329.997ZM190.966 338.937L190.66 337.784C194.396 336.738 198.092 335.564 201.744 334.265L202.125 335.394C198.449 336.702 194.727 337.883 190.966 338.937ZM167.918 342.496L168.071 343.68C171.938 343.152 175.777 342.493 179.585 341.705L179.355 340.533C175.573 341.317 171.759 341.971 167.918 342.496ZM144.762 344.064V345.258C148.67 345.258 152.564 345.127 156.438 344.865L156.361 343.673C152.513 343.933 148.645 344.064 144.762 344.064ZM134.394 -14.0736L134.462 -12.8808C130.589 -12.6487 126.736 -12.2857 122.907 -11.7933L122.763 -12.9788C126.617 -13.4746 130.495 -13.84 134.394 -14.0736ZM111.448 -9.91819L111.226 -11.0912C107.399 -10.3294 103.604 -9.43728 99.8463 -8.4169L100.144 -7.26181C103.876 -8.27536 107.646 -9.16149 111.448 -9.91819ZM88.6528 -4.95992L89.0254 -3.82798C85.3606 -2.55668 81.7411 -1.1602 78.1721 0.358717L77.7264 -0.745018C81.3195 -2.27416 84.9633 -3.68005 88.6528 -4.95992ZM67.5849 5.2988L67.068 4.22828C63.579 6.00378 60.1493 7.89843 56.7844 9.90867L57.3698 10.9414C60.7123 8.94449 64.1191 7.06246 67.5849 5.2988ZM46.8587 16.3039L47.51 17.2941C44.3043 19.5163 41.1712 21.8476 38.116 24.2838L37.4021 23.3401C40.4776 20.8878 43.6316 18.5409 46.8587 16.3039ZM29.2413 31.8552L28.4683 30.962C25.558 33.6163 22.7339 36.3691 20.0011 39.2155L20.8301 40.0542C23.5448 37.2267 26.3502 34.492 29.2413 31.8552ZM12.0695 48.0449L12.9508 48.8254C10.4239 51.8328 7.99479 54.9254 5.66795 58.0979L4.73815 57.3793C7.08047 54.1856 9.52574 51.0724 12.0695 48.0449ZM-1.02234 67.8829L-1.99677 67.2295C-4.12556 70.5752 -6.14536 73.993 -8.05241 77.4771L-7.03773 78.0624C-5.14337 74.6014 -3.13699 71.2064 -1.02234 67.8829ZM-13.4495 88.1615L-12.3989 88.6756C-14.0625 92.2586 -15.6093 95.899 -17.0364 99.5914L-18.1182 99.1507C-16.6816 95.4335 -15.1243 91.7686 -13.4495 88.1615ZM-20.9616 110.839L-22.0699 110.474C-23.2575 114.276 -24.3215 118.121 -25.2598 122.005L-24.1302 122.293C-23.1981 118.435 -22.1412 114.615 -20.9616 110.839ZM-27.6662 133.598L-26.5204 133.808C-27.1993 137.709 -27.7524 141.64 -28.1783 145.595L-29.3352 145.464C-28.9064 141.482 -28.3496 137.525 -27.6662 133.598ZM-29.0704 157.486L-30.2331 157.434C-30.3466 160.092 -30.4035 162.758 -30.4036 165.431C-30.4036 166.766 -30.3895 168.093 -30.3615 169.419L-29.1979 169.393C-29.2257 168.075 -29.2397 166.757 -29.2397 165.431C-29.2396 162.776 -29.183 160.127 -29.0704 157.486ZM-29.7227 181.4L-28.5633 181.296C-28.2236 185.26 -27.7566 189.201 -27.1637 193.114L-28.3138 193.298C-28.9106 189.358 -29.3808 185.391 -29.7227 181.4ZM-24.9961 204.824L-26.1316 205.086C-25.2759 208.99 -24.294 212.857 -23.188 216.683L-22.0722 216.343C-23.1708 212.543 -24.1462 208.701 -24.9961 204.824ZM-19.4935 228.048L-18.4025 227.632C-17.0552 231.355 -15.5871 235.029 -14.0012 238.648L-15.0626 239.138C-16.6592 235.495 -18.1372 231.796 -19.4935 228.048ZM-8.87412 249.369L-9.9011 249.932C-8.06893 253.459 -6.12253 256.922 -4.06556 260.315L-3.07739 259.684C-5.12069 256.313 -7.05414 252.873 -8.87412 249.369ZM2.46436 270.324L3.40922 269.627C5.66771 272.85 8.03018 275.996 10.4923 279.058L9.59461 279.819C7.1161 276.736 4.7379 273.569 2.46436 270.324ZM18.1174 287.932L17.2704 288.751C19.9404 291.659 22.7036 294.476 25.5552 297.196L26.3475 296.321C23.5147 293.618 20.7697 290.82 18.1174 287.932ZM34.4017 305.088L35.1355 304.161C38.138 306.664 41.2205 309.065 44.3779 311.358L43.7057 312.334C40.5273 310.025 37.4241 307.608 34.4017 305.088ZM54.095 317.928L53.4876 318.947C56.8088 321.032 60.1969 323.004 63.6468 324.857L64.1865 323.799C60.7596 321.958 57.394 319.999 54.095 317.928ZM74.2169 330.08L74.686 328.986C78.2233 330.586 81.8133 332.064 85.4508 333.418L85.0541 334.541C81.3921 333.178 77.7779 331.69 74.2169 330.08ZM96.4738 337.096L96.1515 338.244C99.8885 339.35 103.665 340.328 107.476 341.176L107.723 340.008C103.937 339.166 100.186 338.194 96.4738 337.096ZM118.86 343.306L119.031 342.124C122.847 342.705 126.69 343.156 130.555 343.477L130.461 344.668C126.571 344.345 122.702 343.891 118.86 343.306ZM142.17 344.044L142.153 345.239C143.021 345.252 143.889 345.258 144.758 345.258L144.758 344.064C143.895 344.064 143.032 344.057 142.17 344.044Z" fill="#D3D3D3"/>
</g>
</svg>
