<svg width="1676" height="401" viewBox="0 0 1676 401" fill="none" xmlns="http://www.w3.org/2000/svg">
<rect width="1676" height="401" fill="#D95129"/>
<mask id="mask0" mask-type="alpha" maskUnits="userSpaceOnUse" x="1" y="0" width="1676" height="401">
<rect x="1" width="1676" height="401" fill="url(#paint0_linear)"/>
</mask>
<g mask="url(#mask0)">
<path opacity="0.1" d="M1788.57 144.059C1690.46 110.097 1498.42 85.3539 1515.18 258.071C1536.11 473.967 1274.03 247.764 1234.79 385.581C1195.56 523.399 1263.51 661.23 975.241 608.642" stroke="white" stroke-width="90" stroke-linecap="round"/>
<path opacity="0.1" d="M455.414 -18.9411C357.301 -52.9025 165.265 -77.6461 182.016 95.071C202.955 310.967 -59.1329 84.7642 -98.3682 222.581C-137.603 360.399 -69.6458 498.23 -357.918 445.642" stroke="white" stroke-width="90" stroke-linecap="round"/>
<path opacity="0.1" d="M1181.31 3.05892C1083.2 -30.9025 891.163 -55.6461 907.914 117.071C928.853 332.967 666.765 106.764 627.53 244.581C588.295 382.399 656.252 520.23 367.98 467.642" stroke="white" stroke-width="90" stroke-linecap="round"/>
</g>
<defs>
<linearGradient id="paint0_linear" x1="839" y1="0" x2="839" y2="401" gradientUnits="userSpaceOnUse">
<stop stop-color="#E7481A"/>
<stop offset="1" stop-color="white" stop-opacity="0"/>
</linearGradient>
</defs>
</svg>
