<?xml version="1.0" encoding="UTF-8"?>
<svg width="101px" height="28px" viewBox="0 0 101 28" version="1.1" xmlns="http://www.w3.org/2000/svg" xmlns:xlink="http://www.w3.org/1999/xlink">
    <!-- Generator: Sketch 43.1 (39012) - http://www.bohemiancoding.com/sketch -->
    <title>remita_header_logo</title>
    <desc>Created with Sketch.</desc>
    <defs>
        <polygon id="path-1" points="6.83408785 17.5913795 0 17.5913795 0 0.00586379317 13.6681757 0.00586379317 13.6681757 17.5913795"></polygon>
        <polygon id="path-3" points="0.0930821691 17.2981899 4.39410511 17.2981899 4.39410511 0.0951840227 0.0930821691 0.0951840227 0.0930821691 17.2981899"></polygon>
    </defs>
    <g id="Page-1" stroke="none" stroke-width="1" fill="none" fill-rule="evenodd">
        <g id="Remita_Web" transform="translate(-219.000000, -32.000000)">
            <g id="remita_header_logo" transform="translate(219.000000, 32.000000)">
                <path d="M90.9838113,23.922517 C87.985821,24.1572153 85.4949498,22.1797977 85.4949498,18.7282224 C85.4949498,15.280312 87.9806719,13.3421818 90.9742486,13.5676446 C97.1706051,14.0339628 97.1785495,23.4377279 90.9838113,23.922517 L90.9838113,23.922517 Z M100.539335,10.9365606 L100.53757,10.9365606 L100.53757,10.5754976 C100.53757,10.3847777 100.381035,10.2302668 100.187721,10.2302668 L96.5897794,10.2302668 C96.3966122,10.2302668 96.2399305,10.3847777 96.2399305,10.5754976 L96.2399305,10.9242467 L96.2419902,10.9260058 L96.2399305,10.9260058 L96.2399305,11.0107376 C96.2222763,11.1793217 96.0220474,11.2326822 95.901704,11.1127676 C95.1974456,10.4110182 92.8688466,9.76160309 90.7462142,9.76160309 C85.6734051,9.72686012 81.6929544,12.8201576 81.6929544,18.7282224 C81.6929544,24.7405162 85.4971566,27.8682634 90.6405827,27.8339602 C92.5562188,27.7993639 94.7546175,27.5633462 96.2397834,25.6093837 L96.2397834,27.5469276 C96.2397834,27.7375008 96.3966122,27.8920118 96.5897794,27.8920118 L100.187721,27.8920118 C100.381035,27.8920118 100.53757,27.7375008 100.53757,27.5469276 L100.53757,26.8885702 L100.539335,26.3021909 L100.539335,10.9365606 Z" id="Fill-1" fill="#FFFFFF"></path>
                <path d="M17.3491952,20.2573531 C17.630928,22.3772609 19.4981619,23.9066848 22.5274885,23.9066848 C24.1126954,23.9066848 26.191045,23.3156144 27.1774776,22.3080682 L29.9252185,24.9838636 C28.0934403,26.8605706 25.0989809,27.7641811 22.4568714,27.7641811 C16.4682468,27.7641811 12.9103218,24.114996 12.9103218,18.6238469 C12.9103218,13.4109348 16.5037025,9.65752076 22.1399772,9.65752076 C27.9526475,9.65752076 31.5807483,13.2024769 30.9116512,20.2573531 L17.3491952,20.2573531 Z M26.7899663,16.7471399 C26.5082335,14.5230031 24.7469252,13.4109348 22.2809171,13.4109348 C19.955849,13.4109348 18.0534537,14.5230031 17.4195181,16.7471399 L26.7899663,16.7471399 Z" id="Fill-3" fill="#FFFFFF"></path>
                <g id="Group-7" transform="translate(0.000000, 10.307522)">
                    <mask id="mask-2" fill="white">
                        <use xlink:href="#path-1"></use>
                    </mask>
                    <g id="Clip-6"></g>
                    <path d="M9.1944351,0.00586379317 C7.43327397,0.00586379317 5.63621582,0.318843754 4.29787459,2.43875158 L4.29787459,0.762879492 C4.29787459,0.572306214 4.1411929,0.417795264 3.94787858,0.417795264 L0.350084289,0.417795264 C0.156769969,0.417795264 -5.88475858e-05,0.572306214 -5.88475858e-05,0.762879492 L-5.88475858e-05,1.78273972 L-5.88475858e-05,2.41896128 L-5.88475858e-05,2.98335137 L-5.88475858e-05,4.64749587 L-5.88475858e-05,14.1705892 L-5.88475858e-05,15.0655506 L0.00406048343,15.0700951 L-5.88475858e-05,15.0724406 L-5.88475858e-05,16.3283185 L-5.88475858e-05,17.2460021 C-5.88475858e-05,17.436722 0.156769969,17.5913795 0.350084289,17.5913795 L3.94787858,17.5913795 C4.1411929,17.5913795 4.29787459,17.436722 4.29787459,17.2460021 L4.29787459,15.4585713 C4.29787459,15.3719338 4.3080258,15.2898407 4.29787459,15.2062816 L4.29787459,12.5469048 L4.29787459,8.55527424 C4.29787459,5.39307718 6.37607709,4.21122966 8.63067523,4.21122966 C10.0396336,4.21122966 10.8499648,4.59340238 11.7309132,5.32315144 L13.6681757,1.63936998 C12.7171987,0.701016474 10.9907577,0.00586379317 9.1944351,0.00586379317" id="Fill-5" fill="#FFFFFF" mask="url(#mask-2)"></path>
                </g>
                <g id="Group-10" transform="translate(62.378441, 10.600712)">
                    <mask id="mask-4" fill="white">
                        <use xlink:href="#path-3"></use>
                    </mask>
                    <g id="Clip-9"></g>
                    <path d="M4.39410511,15.1399182 L4.39410511,8.12330326 L4.3924868,8.12330326 L4.3924868,0.440268251 C4.3924868,0.249694973 4.2358051,0.0951840227 4.04234366,0.0951840227 L0.444696495,0.0951840227 C0.251382175,0.0951840227 0.0944062398,0.249694973 0.0944062398,0.440268251 L0.0944062398,11.9016384 C0.0944062398,11.9076488 0.0961716673,11.913366 0.0964659053,11.9193764 L0.0964659053,14.7724049 L0.102203545,14.7792949 L0.0944062398,14.7792949 L0.0944062398,15.145782 C0.0939648829,15.1557504 0.0930821691,15.1661586 0.0930821691,15.1765669 C0.0930821691,15.1868285 0.0939648829,15.1970902 0.0944062398,15.2073518 L0.0944062398,16.9528564 C0.0944062398,17.1435763 0.251382175,17.2982338 0.444696495,17.2982338 L4.04234366,17.2982338 C4.2358051,17.2982338 4.3924868,17.1435763 4.3924868,16.9528564 L4.3924868,15.2080848 C4.39263392,15.1973833 4.39410511,15.1869751 4.39410511,15.1765669 C4.39410511,15.1661586 4.39307527,15.1557504 4.3924868,15.1456354 L4.3924868,15.1400648 L4.39410511,15.1399182 Z" id="Fill-8" fill="#FFFFFF" mask="url(#mask-4)"></path>
                </g>
                <path d="M52.5182338,10.5220491 C50.2637828,10.5220491 48.2557561,11.2169086 46.7057107,13.6497964 C45.719278,11.2863945 43.6409284,10.4525632 41.5625788,10.4525632 C39.9067548,10.4525632 37.8988752,11.0779367 36.9832068,12.8156718 L36.9832068,11.0704604 C36.9832068,10.8797405 36.8263779,10.7252295 36.6330636,10.7252295 L33.0352693,10.7252295 C32.841955,10.7252295 32.6852733,10.8797405 32.6852733,11.0704604 L32.6852733,13.2560427 L32.6852733,14.9550767 L32.6852733,23.6622232 L32.6852733,25.3731315 L32.6852733,27.5468396 C32.6852733,27.7374129 32.841955,27.8920704 33.0352693,27.8920704 L36.6330636,27.8920704 C36.8263779,27.8920704 36.9832068,27.7374129 36.9832068,27.5468396 L36.9832068,25.3731315 L36.9832068,18.7240298 C36.9832068,16.4648569 38.3570036,14.414435 40.6819246,14.414435 C43.0420071,14.414435 44.2398497,16.4648569 44.2398497,18.7240298 L44.2398497,25.3731315 L44.2508836,25.3861784 L44.2508836,27.553583 C44.2508836,27.7443028 44.4075653,27.8988138 44.6008796,27.8988138 L48.1986739,27.8988138 C48.3919882,27.8988138 48.5488171,27.7443028 48.5488171,27.553583 L48.5488171,22.8544857 L48.5374889,22.8544857 L48.5374889,18.7240298 C48.5374889,16.4648569 49.9817558,14.483921 52.3068239,14.483921 C54.6317449,14.483921 55.5830161,16.3953709 55.5830161,18.6542507 L55.5830161,23.6622232 L55.5827219,23.6622232 L55.5827219,27.5468396 C55.5827219,27.7374129 55.7395507,27.8920704 55.9327179,27.8920704 L59.5305122,27.8920704 C59.7239736,27.8920704 59.8806553,27.7374129 59.8806553,27.5468396 L59.8806553,25.3731315 L59.8806553,23.6622232 L59.8806553,18.6542507 C59.8806553,13.5108245 57.4499558,10.5220491 52.5182338,10.5220491" id="Fill-11" fill="#FFFFFF"></path>
                <path d="M48.5205996,7.15566011 C47.6564228,8.01675813 46.2552618,8.01675813 45.391085,7.15566011 C44.5269082,6.29456208 44.5269082,4.89839292 45.391085,4.0372949 C46.2552618,3.17619687 47.6564228,3.17619687 48.5205996,4.0372949 C49.3847764,4.89839292 49.3847764,6.29456208 48.5205996,7.15566011" id="Fill-13" fill="#FFFFFF"></path>
                <path d="M48.5205996,4.03736819 C49.3847764,4.89846622 49.3847764,6.29463538 48.5205996,7.1557334 C47.6564228,8.01683143 46.2552618,8.01683143 45.391085,7.1557334" id="Fill-15" fill="#FFFFFF"></path>
                <path d="M57.4312128,6.94485674 C56.285009,8.08697706 54.4266022,8.08697706 53.2803984,6.94485674 C52.1343416,5.80273643 52.1343416,3.95095054 53.2803984,2.80883023 C54.4266022,1.66685651 56.285009,1.66685651 57.4312128,2.80883023 C58.5774167,3.95095054 58.5774167,5.80273643 57.4312128,6.94485674" id="Fill-17" fill="#FFFFFF"></path>
                <path d="M57.4312128,2.80891818 C58.5774167,3.9510385 58.5774167,5.80282438 57.4312128,6.9449447 C56.285009,8.08691842 54.4266022,8.08691842 53.2803984,6.9449447" id="Fill-19" fill="#FFFFFF"></path>
                <path d="M67.5260896,6.65896751 C65.9973764,8.18223438 63.5188632,8.18223438 61.9898558,6.65896751 C60.4612897,5.13570063 60.4612897,2.66587095 61.9898558,1.14245748 C63.5188632,-0.380809388 65.9973764,-0.380809388 67.5260896,1.14245748 C69.0549498,2.66587095 69.0549498,5.13570063 67.5260896,6.65896751" id="Fill-21" fill="#1CA78B"></path>
                <path d="M67.5260896,1.1425601 C69.0549498,2.66582697 69.0549498,5.13565666 67.5260896,6.65907012 C65.9973764,8.18233699 63.5188632,8.18233699 61.9898558,6.65907012" id="Fill-23" fill="#178972"></path>
                <path d="M80.6862046,23.2194629 C80.6862046,23.2194629 79.8933805,23.475564 79.3858201,23.601489 C78.878701,23.7281469 78.4449943,23.7914759 78.0858769,23.7914759 C77.8109116,23.7914759 77.5518351,23.7598114 77.3089417,23.6967756 C77.0654598,23.6333001 76.8491949,23.5177833 76.6586758,23.3491993 C76.468451,23.1807618 76.3147117,22.9489954 76.198782,22.6539 C76.082558,22.3590978 76.0245931,21.979857 76.0245931,21.5163241 L76.0245931,12.3016664 L80.4450766,12.3016664 C80.6364784,12.3016664 80.7915418,12.1453963 80.7915418,11.9529173 L80.7915418,8.36794071 C80.7915418,8.1753151 80.6364784,8.01904501 80.4450766,8.01904501 L76.0245931,8.01904501 L76.0245931,2.75951573 L74.5339838,2.75951573 C74.1957573,4.67653631 73.5669708,6.23527913 72.6473302,7.43589078 C71.7276895,8.63694222 70.5276401,9.54275167 69.0480647,10.1534657 L69.0480647,12.2074059 L71.4580204,12.2074059 L71.4580204,21.2004123 C71.4580204,22.3379882 71.5583556,23.3283828 71.7594672,24.1704235 C71.9601375,25.0131972 72.2826222,25.7084965 72.7264802,26.2561748 C73.1704852,26.8041462 73.7620505,27.2094809 74.5022061,27.4726187 C75.2420673,27.7356098 76.6527911,27.8888014 77.7305846,27.8676917 C80.2857468,27.8177029 81.3149911,27.1295868 81.7804755,26.8340516 L80.6862046,23.2194629 Z" id="Fill-25" fill="#FFFFFF"></path>
            </g>
        </g>
    </g>
</svg>