<svg width="24" height="24" viewBox="0 0 24 24" fill="none" xmlns="http://www.w3.org/2000/svg">
<path fill-rule="evenodd" clip-rule="evenodd" d="M18.4481 9.28271H17.2842V7.82784C17.2842 5.02009 14.8477 2.73584 11.8527 2.73584C8.85774 2.73584 6.42125 5.02009 6.42125 7.82784V9.28271H5.25736C5.04291 9.28271 4.86938 9.4454 4.86938 9.64644V18.7393C4.86938 19.5417 5.56535 20.1942 6.42125 20.1942H17.2842C18.1401 20.1942 18.8361 19.5417 18.8361 18.7393V9.64644C18.8361 9.4454 18.6625 9.28271 18.4481 9.28271ZM13.0145 16.8807C13.0266 16.9833 12.9914 17.0863 12.9179 17.1634C12.8444 17.2405 12.739 17.2845 12.6288 17.2845H11.0769C10.9667 17.2845 10.8614 17.2405 10.7879 17.1634C10.7143 17.0864 10.6791 16.9834 10.6913 16.8807L10.936 14.8174C10.5386 14.5464 10.301 14.1177 10.301 13.6474C10.301 12.845 10.997 12.1925 11.8529 12.1925C12.7088 12.1925 13.4047 12.845 13.4047 13.6474C13.4047 14.1177 13.1672 14.5464 12.7698 14.8174L13.0145 16.8807ZM8.74912 7.82791V9.28279H14.9565V7.82791C14.9565 6.22352 13.5642 4.9182 11.8528 4.9182C10.1415 4.9182 8.74912 6.22352 8.74912 7.82791Z" fill="#525256"/>
</svg>
