<svg width="24" height="25" viewBox="0 0 24 25" fill="none" xmlns="http://www.w3.org/2000/svg">
<mask id="path-1-outside-1" maskUnits="userSpaceOnUse" x="1.9375" y="2.06375" width="19" height="19" fill="black">
<rect fill="white" x="1.9375" y="2.06375" width="19" height="19"/>
<path fill-rule="evenodd" clip-rule="evenodd" d="M12.2486 3.06375H11.0847V11.211H2.9375V12.3749H11.0847V20.5221H12.2486V12.3749H20.3958V11.211H12.2486V3.06375Z"/>
</mask>
<path fill-rule="evenodd" clip-rule="evenodd" d="M12.2486 3.06375H11.0847V11.211H2.9375V12.3749H11.0847V20.5221H12.2486V12.3749H20.3958V11.211H12.2486V3.06375Z" fill="#525256"/>
<path d="M11.0847 3.06375V2.5982H10.6192V3.06375H11.0847ZM12.2486 3.06375H12.7142V2.5982H12.2486V3.06375ZM11.0847 11.211V11.6765H11.5503V11.211H11.0847ZM2.9375 11.211V10.7454H2.47194V11.211H2.9375ZM2.9375 12.3749H2.47194V12.8404H2.9375V12.3749ZM11.0847 12.3749H11.5503V11.9093H11.0847V12.3749ZM11.0847 20.5221H10.6192V20.9876H11.0847V20.5221ZM12.2486 20.5221V20.9876H12.7142V20.5221H12.2486ZM12.2486 12.3749V11.9093H11.7831V12.3749H12.2486ZM20.3958 12.3749V12.8404H20.8614V12.3749H20.3958ZM20.3958 11.211H20.8614V10.7454H20.3958V11.211ZM12.2486 11.211H11.7831V11.6765H12.2486V11.211ZM11.0847 3.52931H12.2486V2.5982H11.0847V3.52931ZM11.5503 11.211V3.06375H10.6192V11.211H11.5503ZM2.9375 11.6765H11.0847V10.7454H2.9375V11.6765ZM3.40306 12.3749V11.211H2.47194V12.3749H3.40306ZM11.0847 11.9093H2.9375V12.8404H11.0847V11.9093ZM11.5503 20.5221V12.3749H10.6192V20.5221H11.5503ZM12.2486 20.0565H11.0847V20.9876H12.2486V20.0565ZM11.7831 12.3749V20.5221H12.7142V12.3749H11.7831ZM20.3958 11.9093H12.2486V12.8404H20.3958V11.9093ZM19.9303 11.211V12.3749H20.8614V11.211H19.9303ZM12.2486 11.6765H20.3958V10.7454H12.2486V11.6765ZM11.7831 3.06375V11.211H12.7142V3.06375H11.7831Z" fill="#525256" mask="url(#path-1-outside-1)"/>
</svg>
